<?xml version="1.0" encoding="utf-8"?>
<!-- Generator: Adobe Illustrator 16.0.0, SVG Export Plug-In . SVG Version: 6.00 Build 0)  -->
<!DOCTYPE svg PUBLIC "-//W3C//DTD SVG 1.1//EN" "http://www.w3.org/Graphics/SVG/1.1/DTD/svg11.dtd">
<svg version="1.1" id="Layer_1" xmlns="http://www.w3.org/2000/svg" xmlns:xlink="http://www.w3.org/1999/xlink" x="0px" y="0px"
	 width="306px" height="162px" viewBox="0 0 306 162" enable-background="new 0 0 306 162" xml:space="preserve">
<g>
	<g>
		<path fill="#A71E32" d="M153.167,64.866c-0.04-0.058-0.091-0.104-0.153-0.141c-0.066-0.034-0.141-0.052-0.229-0.052
			c-0.09,0-0.166,0.018-0.229,0.052c-0.063,0.036-0.117,0.083-0.156,0.141c-0.039,0.057-0.068,0.124-0.089,0.195
			c-0.019,0.073-0.028,0.146-0.028,0.222c0,0.076,0.01,0.15,0.028,0.223c0.021,0.071,0.05,0.139,0.089,0.195
			c0.039,0.059,0.093,0.105,0.156,0.141c0.062,0.033,0.139,0.053,0.229,0.053c0.089,0,0.163-0.02,0.229-0.053
			c0.062-0.035,0.113-0.082,0.153-0.141c0.042-0.057,0.072-0.124,0.09-0.195c0.021-0.072,0.029-0.146,0.029-0.223
			c0-0.075-0.009-0.148-0.029-0.222C153.239,64.99,153.209,64.923,153.167,64.866z M151.566,15.353
			c-15.108,0-27.361,12.25-27.361,27.361c0,15.11,12.253,27.363,27.361,27.363c15.113,0,27.364-12.253,27.364-27.363
			C178.931,27.603,166.68,15.353,151.566,15.353z M152.536,22.9c0,0-0.195,1.727,0.52,1.585c0.906-0.174,1.506-2.02,4.572-2.747
			c0,0-0.687,1.94-0.099,3.348c0.587,1.812,1.529,2.92,0.584,5.638c-0.944,2.117-2.146,2.609-2.146,2.609l-1.149-0.001
			c0.639-0.646,1.503-1.671,1.787-2.706c0.329-1.219,0.043-1.949-0.236-2.655c-0.115-0.288-0.233-0.587-0.308-0.927
			c-0.251-1.153-0.057-2.375-0.055-2.386l0.163-0.999l-0.831,0.577c-0.378,0.265-0.881,0.537-1.412,0.827
			c-2.374,1.293-5.904,3.222-5.744,8.265l-1.596-0.001c0,0-1.192-1.681,0.106-4.709C148.196,25.119,152.536,22.9,152.536,22.9z
			 M155.225,27.228c0.087,0.404,0.221,0.737,0.345,1.058c0.174,0.441,0.323,0.822,0.323,1.312c0,0.236-0.033,0.497-0.117,0.804
			c-0.357,1.32-1.991,2.742-2.216,2.932l-4.521-0.004c-0.003-0.107-0.009-0.213-0.009-0.318c0-4.304,3.044-5.961,5.307-7.194
			c0.257-0.14,0.507-0.278,0.743-0.413c-0.003,0.103-0.003,0.208-0.003,0.321C155.076,26.172,155.11,26.7,155.225,27.228z
			 M157.1,33.992c0.251,0,0.454,0.205,0.454,0.455s-0.203,0.454-0.454,0.454h-11.021c-0.251,0-0.454-0.204-0.454-0.454
			s0.203-0.455,0.454-0.455H157.1z M147.769,40.075c-1.434-1.479-4.161-3.812-5.763-4.85l-1.025-2.728
			C141.688,32.691,144.294,34.021,147.769,40.075z M148.164,41.778l-9.788-4.19l-1.337-3.529
			C138.802,34.387,142.491,36.125,148.164,41.778z M146.646,35.569h9.927c-0.625,1.215-2.243,2.835-4.986,2.835
			C148.849,38.404,147.157,36.784,146.646,35.569z M161.173,35.226c-1.604,1.038-4.329,3.371-5.767,4.85
			c3.476-6.054,6.086-7.384,6.791-7.577L161.173,35.226z M166.138,34.059l-1.335,3.529l-9.788,4.19
			C160.687,36.125,164.376,34.387,166.138,34.059z M148.872,68.639c-0.427-0.045-0.969-0.12-0.969-0.12
			c-1.721-1.326-3.29-3.587-4.593-6.674c-0.447-1.06-0.853-2.191-1.215-3.384h-7.532c2.552,4.344,6.131,7.684,10.285,9.442
			c0,0-0.202-0.06-0.405-0.108c-0.532-0.13-1.451-0.456-1.451-0.456c-0.465-0.148-1.562-0.597-1.562-0.597
			c-3.008-1.993-5.599-4.841-7.562-8.281h-3.086c-0.028-0.029-0.445-0.603-0.445-0.603h3.21c-2.295-4.254-3.654-9.352-3.698-14.84
			h-4.362v-0.602h4.365c0.054-5.492,1.424-10.59,3.727-14.839h-3.259l0.45-0.602h3.128c0.002-0.005,0.004-0.009,0.006-0.013
			c2.021-3.519,4.698-6.411,7.809-8.399c0,0,1.466-0.608,2.424-0.854c0,0,0.706-0.199,0.958-0.268l0.184-0.035
			c-4.32,1.701-8.045,5.1-10.683,9.568h7.526c0.357-1.171,0.75-2.29,1.19-3.332c1.33-3.158,2.943-5.451,4.711-6.765
			c0,0,0.698-0.09,0.899-0.106s0.458-0.034,0.458-0.034c-2.707,1.337-5.052,5.074-6.642,10.237h3.593c0,0-0.221,0.37-0.344,0.602
			h-3.435c-0.367,1.265-0.689,2.611-0.962,4.024l-0.233-0.099c-0.126-0.055-0.338-0.104-0.338-0.104
			c0.26-1.329,0.57-2.603,0.921-3.821h-7.676c-2.353,4.22-3.756,9.326-3.811,14.839h4.518l0.23,0.602h-4.75
			c0.045,5.51,1.438,10.616,3.78,14.84h7.697c-0.291-1.013-0.558-2.056-0.786-3.144l0.678,0.295
			c0.215,0.989,0.458,1.938,0.721,2.849h5.707l1.362,0.603h-6.892c1.561,5.099,3.859,8.813,6.516,10.215L148.872,68.639z
			 M148.518,66.214c0.019,0.008,0.041,0.014,0.066,0.016v0.049h-0.806v-0.049c0.028-0.002,0.051-0.008,0.072-0.016
			c0.019-0.008,0.029-0.026,0.029-0.057v-1.286c-0.068,0.018-0.123,0.031-0.164,0.042c-0.043,0.01-0.073,0.021-0.093,0.034
			c-0.021,0.012-0.034,0.026-0.039,0.043c-0.008,0.016-0.013,0.036-0.013,0.064h-0.049v-0.652h0.049
			c0,0.015,0.002,0.034,0.006,0.059c0.007,0.025,0.018,0.038,0.04,0.038c0.005,0,0.02-0.004,0.044-0.013
			c0.023-0.01,0.051-0.021,0.083-0.03c0.027-0.012,0.056-0.021,0.084-0.032c0.025-0.01,0.042-0.018,0.052-0.021v-0.13
			c0-0.028-0.01-0.047-0.028-0.056c-0.018-0.008-0.036-0.014-0.054-0.016v-0.048h0.793v0.048c-0.029,0.002-0.055,0.008-0.073,0.016
			c-0.021,0.009-0.031,0.027-0.031,0.056v1.885C148.486,66.188,148.496,66.206,148.518,66.214z M151.158,65.657
			c-0.065,0.139-0.155,0.258-0.271,0.352c-0.112,0.093-0.242,0.164-0.393,0.213c-0.15,0.046-0.309,0.069-0.472,0.069
			c-0.105,0-0.202-0.005-0.289-0.017c-0.086-0.01-0.162-0.023-0.227-0.042c-0.066-0.018-0.117-0.032-0.155-0.047
			c-0.038-0.014-0.061-0.021-0.068-0.021c-0.033,0-0.063,0.016-0.093,0.046l-0.05-0.021l0.319-0.542l0.041,0.02v0.038
			c0,0.034,0.015,0.064,0.046,0.09c0.029,0.025,0.067,0.046,0.117,0.062c0.047,0.017,0.104,0.029,0.167,0.036
			c0.062,0.01,0.127,0.013,0.191,0.013c0.086,0,0.17-0.012,0.248-0.034c0.081-0.023,0.151-0.059,0.217-0.106
			c0.062-0.047,0.115-0.105,0.157-0.175c0.04-0.069,0.064-0.153,0.073-0.251c-0.14,0.069-0.268,0.122-0.384,0.157
			c-0.115,0.035-0.241,0.053-0.376,0.053c-0.104,0-0.202-0.017-0.298-0.049c-0.094-0.033-0.178-0.078-0.251-0.141
			c-0.072-0.062-0.13-0.138-0.173-0.226c-0.043-0.087-0.065-0.186-0.065-0.297c0-0.128,0.03-0.237,0.091-0.328
			c0.061-0.089,0.139-0.163,0.231-0.222c0.093-0.054,0.196-0.096,0.31-0.121c0.114-0.025,0.227-0.04,0.334-0.04
			c0.169,0,0.323,0.023,0.46,0.067c0.137,0.042,0.255,0.106,0.353,0.195c0.1,0.087,0.177,0.196,0.229,0.325
			c0.054,0.132,0.081,0.286,0.081,0.465C151.261,65.357,151.228,65.517,151.158,65.657z M150.921,61.654l-0.342-3.92h-0.003
			l-0.361-4.101c0-0.035-0.032-0.067-0.07-0.067c-0.034,0-0.064,0.032-0.064,0.067l-0.221,3.784l-9.69-4.293
			c-0.086-0.225-5.657-14.931-6.114-16.144l15.254,6.327l-0.422-4.792c0.621,0.272,1.341,0.464,2.153,0.522l0.432,7.933
			c0.003,0.062,0.057,0.104,0.116,0.104s0.116-0.042,0.117-0.104l0.432-7.933c0.817-0.061,1.538-0.255,2.157-0.531l-0.426,4.8
			l15.256-6.326c-0.461,1.213-6.026,15.919-6.113,16.144l-9.693,4.293l-0.22-3.784c0-0.035-0.03-0.067-0.067-0.067
			c-0.035,0-0.064,0.032-0.064,0.067l-0.363,4.101h-0.002l-0.348,3.923c-0.02,0.354-0.309,0.628-0.667,0.628
			C151.233,62.285,150.941,62.007,150.921,61.654z M153.798,65.718c-0.059,0.131-0.139,0.245-0.239,0.342
			c-0.102,0.098-0.218,0.172-0.35,0.224c-0.133,0.052-0.274,0.077-0.425,0.077c-0.149,0-0.29-0.025-0.422-0.077
			c-0.133-0.052-0.251-0.126-0.354-0.224c-0.101-0.097-0.18-0.211-0.238-0.342c-0.059-0.134-0.087-0.276-0.087-0.435
			c0-0.155,0.028-0.3,0.087-0.432s0.138-0.245,0.238-0.343c0.103-0.098,0.221-0.174,0.354-0.229
			c0.132-0.054,0.272-0.082,0.422-0.082c0.15,0,0.292,0.028,0.425,0.082c0.132,0.056,0.248,0.132,0.35,0.229
			c0.101,0.098,0.181,0.211,0.239,0.343c0.057,0.132,0.086,0.276,0.086,0.432C153.884,65.441,153.854,65.584,153.798,65.718z
			 M172.773,27.578h-3.154c2.304,4.249,3.672,9.348,3.725,14.839h4.263l0.007,0.602h-4.268c-0.044,5.488-1.402,10.587-3.696,14.84
			h3.107c0,0-0.344,0.477-0.443,0.603h-2.989c-1.933,3.382-4.465,6.192-7.408,8.178l-0.232,0.092
			c-0.268,0.129-1.361,0.539-1.361,0.539c-0.693,0.255-1.819,0.567-1.819,0.567c4.087-1.776,7.606-5.088,10.125-9.376h-7.533
			c-0.361,1.192-0.767,2.324-1.214,3.384c-1.298,3.074-2.857,5.331-4.571,6.659c0,0-0.303,0.052-0.489,0.067
			c-0.184,0.018-0.834,0.089-0.834,0.089c2.644-1.41,4.932-5.117,6.487-10.199h-6.915l1.362-0.603h5.729
			c0.265-0.916,0.509-1.869,0.724-2.863l0.676-0.298c-0.229,1.095-0.497,2.144-0.787,3.161h7.702
			c2.342-4.224,3.731-9.33,3.777-14.84h-4.774l0.228-0.602h4.545c-0.054-5.513-1.457-10.619-3.809-14.839h-7.681
			c0.349,1.211,0.658,2.477,0.916,3.795l-0.118,0.042c-0.159,0.051-0.451,0.167-0.451,0.167c-0.271-1.405-0.593-2.745-0.958-4.004
			h-1.152c-0.062-0.361-0.15-0.602-0.15-0.602h1.117c-1.59-5.163-3.934-8.902-6.64-10.237c0,0,0.744,0.073,0.923,0.095
			c0.18,0.023,0.462,0.067,0.462,0.067c1.757,1.316,3.355,3.603,4.682,6.743c0.439,1.042,0.835,2.161,1.191,3.332h7.531
			c-2.61-4.425-6.291-7.799-10.555-9.517c0,0,1.475,0.399,2.308,0.706c0,0,0.846,0.313,0.974,0.375
			c0.112,0.054,0.315,0.13,0.315,0.13c3.044,1.985,5.666,4.843,7.65,8.306h3.03L172.773,27.578z M155.439,66.216
			c0.021,0.008,0.042,0.014,0.067,0.016v0.049h-0.895v-0.049c0.03-0.002,0.055-0.013,0.076-0.031
			c0.019-0.02,0.036-0.042,0.054-0.069l0.895-1.499h-1.305c-0.017,0-0.03,0.006-0.048,0.018c-0.016,0.012-0.024,0.037-0.024,0.074
			h-0.047v-0.669h0.047c0,0.042,0.009,0.069,0.024,0.082c0.018,0.013,0.031,0.019,0.048,0.019h1.818c0.015,0,0.03-0.006,0.046-0.019
			c0.018-0.013,0.026-0.037,0.026-0.074h0.048v0.517l-0.781,1.418c-0.016,0.029-0.033,0.062-0.053,0.093
			c-0.019,0.033-0.028,0.057-0.028,0.069C155.408,66.189,155.42,66.209,155.439,66.216z M150.93,48.435
			c-0.122,0.249-0.649,1.388-0.769,1.616c-0.096-0.201-0.613-1.325-0.764-1.659h-0.024c-0.111,0.334-0.725,2.377-0.782,2.543
			l0.437,0.302c0.051-0.174,0.379-1.378,0.428-1.564h0.009c0.061,0.163,0.413,0.962,0.63,1.411h0.021
			c0.193-0.349,0.659-1.307,0.727-1.435c0.04,0.103,0.41,1.38,0.505,1.688l0.487-0.27c-0.103-0.303-0.706-2.153-0.881-2.633H150.93z
			 M174.101,23.202c-0.048,0.036-0.16,0.033-0.261-0.068l-0.082,0.062l1.058,1.261l0.081-0.063c-0.027-0.053-0.047-0.101-0.06-0.141
			s-0.004-0.071,0.024-0.091c0.021-0.019,0.086-0.047,0.188-0.085s1.582-0.545,1.697-0.585c0.114-0.04,0.191-0.072,0.235-0.093
			l0.009,0.013c-0.028,0.037-0.08,0.105-0.149,0.206c-0.07,0.1-0.954,1.399-1.018,1.487c-0.062,0.088-0.106,0.143-0.129,0.16
			c-0.049,0.034-0.126-0.003-0.232-0.114l-0.084,0.062l0.954,1.365l0.083-0.062c-0.076-0.128-0.042-0.229,0.014-0.27
			c0.016-0.01,3.023-1.161,3.079-1.183c0.064-0.021,0.118-0.038,0.163-0.046c0.046-0.006,0.095,0.015,0.15,0.066l0.084-0.063
			l-0.707-1.08l-0.084,0.064c0.034,0.042,0.056,0.088,0.068,0.14c0.013,0.049-0.007,0.093-0.058,0.133
			c-0.027,0.021-2.035,0.819-2.093,0.85l-0.011-0.013c0.026-0.033,1.143-1.691,1.201-1.784c0.066-0.091,0.104-0.141,0.117-0.151
			c0.052-0.037,0.098-0.045,0.144-0.02c0.045,0.024,0.084,0.059,0.114,0.101l0.082-0.064l-0.965-1.268l-0.08,0.065
			c0.028,0.037,0.046,0.082,0.06,0.13c0.013,0.051-0.007,0.096-0.056,0.134c-0.027,0.023-0.094,0.051-0.195,0.091
			c-0.102,0.038-1.953,0.66-2.011,0.689l-0.008-0.01c0.037-0.046,1.358-1.809,1.379-1.82c0.051-0.04,0.098-0.046,0.143-0.021
			c0.044,0.024,0.081,0.056,0.11,0.093l0.083-0.061l-0.902-1.03l-0.082,0.063c0.015,0.021,0.023,0.045,0.028,0.073
			c0.004,0.027-0.013,0.06-0.042,0.096C176.119,20.445,174.122,23.188,174.101,23.202z M150.419,64.603
			c-0.047-0.023-0.094-0.038-0.146-0.049c-0.051-0.009-0.096-0.014-0.133-0.014s-0.081,0.005-0.134,0.014
			c-0.051,0.011-0.1,0.025-0.145,0.049c-0.047,0.021-0.084,0.051-0.116,0.089c-0.033,0.038-0.047,0.089-0.047,0.147
			s0.014,0.109,0.047,0.148c0.032,0.038,0.069,0.07,0.116,0.091c0.045,0.021,0.094,0.037,0.145,0.046
			c0.053,0.009,0.097,0.015,0.134,0.015s0.082-0.006,0.133-0.015c0.052-0.009,0.099-0.024,0.146-0.046
			c0.048-0.021,0.086-0.053,0.118-0.091c0.032-0.039,0.048-0.09,0.048-0.148s-0.016-0.109-0.048-0.147
			S150.467,64.623,150.419,64.603z M179.482,32.249c-0.06,0.021-0.106,0.015-0.134-0.022c-0.034-0.036-0.066-0.091-0.097-0.162
			L179.15,32.1l0.528,1.479l0.099-0.036c-0.021-0.075-0.033-0.139-0.033-0.187c0.001-0.048,0.033-0.083,0.096-0.104l3.127-1.133
			c0.06-0.021,0.107-0.015,0.136,0.021c0.033,0.037,0.066,0.093,0.098,0.164l0.098-0.035l-0.525-1.479l-0.098,0.034
			c0.022,0.078,0.031,0.139,0.031,0.188c-0.003,0.048-0.033,0.084-0.092,0.104L179.482,32.249z M182.907,33.434
			c-0.204,0.06-0.37,0.159-0.498,0.3c-0.124,0.14-0.157,0.313-0.1,0.521c0.045,0.156,0.136,0.277,0.273,0.365
			c0.136,0.09,0.296,0.105,0.478,0.054c0.219-0.061,0.355-0.171,0.415-0.326c0.056-0.159,0.062-0.33,0.01-0.515
			c0.19-0.019,0.357,0.02,0.506,0.113c0.147,0.093,0.271,0.204,0.375,0.332l0.25-0.069c-0.095-0.126-0.198-0.248-0.317-0.368
			c-0.122-0.116-0.256-0.215-0.399-0.29c-0.145-0.075-0.298-0.128-0.464-0.153C183.271,33.369,183.095,33.38,182.907,33.434z
			 M145.215,49.174l-0.175-0.927c-0.095-0.495-0.23-1.281-0.24-1.369l-0.581-0.246c0.018,0.078,0.207,1.049,0.219,1.111l0.098,0.523
			c0.021,0.093,0.187,0.981,0.207,1.183c0.19,0.077,1.061,0.501,1.126,0.528l-0.11-0.57
			C145.482,49.305,145.295,49.208,145.215,49.174z M160.194,47.28h0.005c0.013,0.147,0.101,0.868,0.174,1.262l0.017-0.007
			c0.271-0.439,0.957-1.622,1.055-1.779c0.005,0.094-0.02,1.31-0.02,1.603l0.513-0.464c-0.008-0.278-0.03-2.054-0.051-2.497
			l-0.021,0.005c-0.176,0.31-0.974,1.74-1.146,2.025c-0.028-0.179-0.168-1.227-0.212-1.524l-0.018,0.007
			c-0.196,0.395-1.417,3.03-1.507,3.225l0.358,0.063C159.434,48.996,160.097,47.499,160.194,47.28z M140.147,44.904
			c-0.022,0.308-0.09,1.34-0.106,1.524c-0.186-0.293-1.061-1.752-1.258-2.066l-0.02-0.006c0.008,0.457,0.116,2.276,0.124,2.563
			l0.529,0.47c-0.021-0.301-0.123-1.549-0.126-1.647c0.104,0.164,0.855,1.371,1.146,1.817l0.016,0.008
			c0.042-0.404,0.084-1.146,0.084-1.298l0.003,0.002c0.115,0.218,0.859,1.752,0.963,1.958l0.348-0.07
			c-0.105-0.197-1.464-2.845-1.683-3.246L140.147,44.904z M152.886,50.643l1.009-0.063c0.033,0.063,0.197,0.502,0.275,0.681
			l0.48-0.366c-0.167-0.306-0.906-1.927-1.241-2.581h-0.024c-0.207,0.422-1.096,2.438-1.222,2.716l0.458,0.334
			C152.69,51.196,152.857,50.719,152.886,50.643z M153.385,49.312c0.046,0.124,0.279,0.664,0.343,0.828l-0.678,0.04
			C153.109,50.026,153.323,49.466,153.385,49.312z M157.159,49.366l0.931-0.425c0.021,0.047,0.13,0.505,0.172,0.653l0.503-0.538
			c-0.096-0.245-0.508-1.676-0.695-2.208l-0.018,0.007c-0.271,0.497-1.458,2.839-1.627,3.162l0.355,0.168
			C156.878,49.992,157.118,49.457,157.159,49.366z M157.865,47.856c0.019,0.105,0.129,0.562,0.158,0.705l-0.629,0.285
			C157.479,48.669,157.778,48.033,157.865,47.856z M156.172,49.921c-0.247,0.116-0.58,0.248-0.648,0.276l0.126-0.891
			c0.074-0.497,0.202-1.304,0.219-1.396l-0.509,0.204c-0.004,0.073-0.143,1.05-0.149,1.114l-0.074,0.528
			c-0.015,0.096-0.138,0.943-0.183,1.16c0.165-0.066,1.08-0.397,1.137-0.421L156.172,49.921z M176.988,27.408
			c-0.025-0.022-0.048-0.049-0.062-0.075l-0.093,0.048l0.604,1.052l0.093-0.05c-0.008-0.013-0.017-0.033-0.021-0.059
			c-0.008-0.026,0.004-0.05,0.042-0.067c0.021-0.011,0.056-0.019,0.112-0.022c0.052-0.004,0.479-0.04,0.52-0.05l0.85,1.629
			c-0.028,0.033-0.315,0.386-0.353,0.427c-0.034,0.039-0.062,0.062-0.082,0.072c-0.038,0.02-0.062,0.018-0.079-0.001
			c-0.017-0.02-0.032-0.04-0.039-0.053l-0.09,0.049l0.543,1.232l0.096-0.047c-0.017-0.028-0.021-0.059-0.024-0.096
			c-0.002-0.036,0.008-0.062,0.026-0.086c0.109-0.119,2.209-2.701,2.304-2.812c0.095-0.112,0.152-0.178,0.169-0.186
			c0.046-0.023,0.086-0.007,0.126,0.052l0.092-0.048l-0.747-1.46l-0.092,0.048c0.022,0.064,0.014,0.107-0.03,0.133
			c-0.025,0.014-0.15,0.031-0.381,0.055c-0.226,0.022-2.96,0.292-3.393,0.34C177.047,27.435,177.018,27.429,176.988,27.408z
			 M180.507,27.991l-1.043,1.294l-0.609-1.164L180.507,27.991z M146.809,47.597c-0.189,0.537-0.62,1.979-0.715,2.229l0.492,0.55
			c0.043-0.148,0.152-0.61,0.176-0.658l0.912,0.442c0.038,0.093,0.269,0.64,0.361,0.835l0.354-0.164
			c-0.161-0.33-1.3-2.719-1.561-3.227L146.809,47.597z M146.998,48.62c0.084,0.181,0.37,0.832,0.449,1.013l-0.614-0.3
			C146.862,49.189,146.978,48.727,146.998,48.62z M162.981,47.012l0.937-0.43c0.011,0.05,0.026,0.546,0.033,0.709l0.568-0.567
			c-0.04-0.268-0.158-1.824-0.229-2.403l-0.021,0.009c-0.341,0.528-1.873,3.021-2.085,3.367l0.298,0.188
			C162.604,47.683,162.926,47.109,162.981,47.012z M163.912,45.402c0,0.113,0.013,0.608,0.013,0.764l-0.63,0.294
			C163.407,46.271,163.8,45.591,163.912,45.402z M142.58,46.13c-0.148,0.506-0.465,1.86-0.54,2.094l0.52,0.492
			c0.028-0.142,0.107-0.573,0.122-0.616l0.922,0.374c0.045,0.084,0.31,0.581,0.411,0.76l0.336-0.165
			c-0.183-0.301-1.463-2.47-1.75-2.932L142.58,46.13z M142.841,47.071c0.089,0.167,0.417,0.757,0.508,0.92l-0.621-0.252
			C142.747,47.604,142.823,47.174,142.841,47.071z M143.067,45.575l-1.248-0.518l0.12,0.529l1.254,0.522L143.067,45.575z
			 M135.246,67.886c-0.029,0.005-0.053-0.003-0.069-0.015l-1.986-1.426l-0.049,0.069c0.029,0.024,0.054,0.053,0.067,0.082
			c0.019,0.027,0.016,0.062-0.017,0.104l-1.49,2.082c-0.026,0.041-0.058,0.057-0.093,0.051c-0.032-0.006-0.066-0.019-0.1-0.038
			l-0.048,0.065l1.953,1.398c0.037,0.025,0.057,0.046,0.07,0.066c0.009,0.018,0.003,0.059-0.018,0.118l0.042,0.034l0.517-0.722
			l-0.052-0.038c-0.084,0.08-0.153,0.099-0.213,0.055l-1.242-0.89l0.384-0.541l0.825,0.591c0.018,0.012,0.029,0.033,0.034,0.06
			c0.01,0.033-0.01,0.071-0.045,0.122l0.055,0.037l0.507-0.713l-0.052-0.035c-0.037,0.05-0.069,0.075-0.099,0.081
			c-0.028,0.003-0.052-0.002-0.069-0.014l-0.823-0.588l0.316-0.443l1.279,0.914c0.018,0.016,0.031,0.033,0.034,0.064
			c0.006,0.029-0.011,0.071-0.051,0.125l0.054,0.037l0.525-0.734l-0.053-0.038C135.307,67.858,135.275,67.883,135.246,67.886z
			 M169.639,70.15c-0.025,0-0.045-0.009-0.063-0.022c-0.094-0.08-1.961-1.558-2.046-1.628c-0.089-0.071-0.137-0.118-0.143-0.131
			c-0.021-0.033-0.012-0.066,0.026-0.092l-0.042-0.07l-0.967,0.575l0.041,0.069c0.044-0.02,0.073-0.013,0.095,0.023
			c0.008,0.02,0.037,0.119,0.072,0.292c0.034,0.169,0.421,2.115,0.489,2.439c0.004,0.023,0,0.046-0.013,0.064
			c-0.01,0.022-0.026,0.037-0.045,0.049l0.041,0.069l0.702-0.389l-0.043-0.067c-0.008,0.004-0.021,0.011-0.04,0.016
			c-0.018,0.005-0.033-0.005-0.05-0.031c-0.012-0.018-0.018-0.044-0.027-0.085c-0.004-0.039-0.064-0.337-0.072-0.374l1.074-0.642
			c0.025,0.021,0.271,0.217,0.303,0.243c0.031,0.025,0.05,0.048,0.059,0.062c0.018,0.026,0.019,0.047,0.005,0.06
			c-0.014,0.014-0.024,0.022-0.032,0.029l0.038,0.068l0.744-0.479l-0.042-0.069C169.684,70.142,169.663,70.148,169.639,70.15z
			 M167.453,70.352l-0.226-1.237l0.992,0.781L167.453,70.352z M157.73,72.766c-0.103-0.059-0.214-0.073-0.342-0.05
			c-0.006-0.146,0.028-0.269,0.096-0.371c0.069-0.103,0.147-0.189,0.237-0.257l-0.039-0.191c-0.087,0.06-0.174,0.129-0.258,0.209
			c-0.086,0.082-0.156,0.174-0.214,0.276c-0.057,0.104-0.096,0.214-0.12,0.335s-0.024,0.255,0.004,0.399
			c0.03,0.16,0.09,0.291,0.18,0.399c0.087,0.105,0.204,0.144,0.346,0.117c0.108-0.02,0.191-0.08,0.255-0.174
			c0.064-0.097,0.084-0.215,0.057-0.355C157.897,72.935,157.832,72.822,157.73,72.766z M161.612,73.999
			c-0.024-0.004-0.041-0.018-0.053-0.037c-0.071-0.101-1.472-2.033-1.537-2.125c-0.062-0.092-0.099-0.144-0.102-0.157
			c-0.012-0.039,0.006-0.067,0.05-0.082l-0.022-0.08l-1.086,0.296l0.021,0.077c0.047-0.006,0.076,0.009,0.086,0.049
			c0.009,0.023,0.003,0.118-0.01,0.292c-0.014,0.171-0.166,2.155-0.189,2.487c0,0.022-0.008,0.045-0.027,0.061
			c-0.017,0.018-0.037,0.027-0.057,0.034l0.021,0.077l0.777-0.182l-0.021-0.075c-0.01,0-0.023,0.001-0.041,0.004
			c-0.019,0-0.032-0.016-0.04-0.047c-0.004-0.017-0.004-0.046,0-0.087c0.002-0.039,0.025-0.354,0.028-0.39l1.209-0.327
			c0.017,0.027,0.202,0.283,0.227,0.317c0.021,0.034,0.033,0.058,0.039,0.076c0.009,0.029,0.005,0.05-0.013,0.058
			c-0.015,0.01-0.026,0.017-0.039,0.018l0.021,0.078l0.844-0.258l-0.019-0.077C161.66,74.004,161.636,74.004,161.612,73.999z
			 M159.449,73.604l0.118-1.255l0.745,1.02L159.449,73.604z M163.008,73.51c-0.034-0.004-0.057-0.028-0.076-0.075l-0.857-2.403
			c-0.017-0.045-0.015-0.081,0.011-0.103c0.024-0.023,0.062-0.048,0.112-0.069l-0.028-0.076l-1.006,0.357l0.029,0.076
			c0.052-0.014,0.093-0.02,0.128-0.016c0.033,0.002,0.056,0.025,0.074,0.072l0.862,2.406c0.017,0.048,0.013,0.082-0.01,0.105
			c-0.028,0.022-0.063,0.044-0.112,0.067l0.028,0.076l1.001-0.361l-0.024-0.076C163.084,73.506,163.041,73.512,163.008,73.51z
			 M166.461,71.99c-0.032-0.003-0.058-0.025-0.08-0.069l-1.066-2.322c-0.02-0.045-0.02-0.079,0-0.103
			c0.02-0.025,0.05-0.048,0.088-0.069l-0.034-0.074l-0.849,0.42l0.032,0.074c0.042-0.016,0.077-0.021,0.107-0.021
			c0.033,0,0.059,0.022,0.081,0.07l0.555,1.205c-0.168-0.091-1.214-0.659-1.307-0.713c-0.085-0.05-0.124-0.069-0.136-0.088
			c-0.024-0.041-0.022-0.074-0.006-0.099c0.021-0.02,0.04-0.039,0.062-0.054l-0.034-0.074l-1.18,0.505l0.036,0.074
			c0.036-0.013,0.07-0.018,0.102-0.018c0.03,0,0.056,0.022,0.078,0.068l1.065,2.323c0.021,0.043,0.021,0.077,0.005,0.101
			c-0.019,0.025-0.044,0.046-0.076,0.063l0.034,0.075l0.848-0.359l-0.033-0.076c-0.036,0.016-0.069,0.02-0.102,0.02
			c-0.03-0.002-0.055-0.024-0.074-0.067l-0.735-1.6l0.005-0.018c0.229,0.141,1.103,0.605,1.282,0.701
			c0.182,0.097,0.329,0.179,0.452,0.245c0.113,0.067,0.181,0.12,0.197,0.155c0.019,0.038,0.016,0.067-0.019,0.091
			c-0.032,0.024-0.061,0.042-0.085,0.054l0.035,0.075l0.893-0.444l-0.03-0.075C166.528,71.981,166.49,71.99,166.461,71.99z
			 M159.805,71.105l-0.124-0.418l-1.01,0.301l0.124,0.418L159.805,71.105z M140.466,70.69c0.043,0.021,0.057,0.051,0.039,0.089
			c-0.005,0.02-0.063,0.099-0.174,0.23c-0.113,0.135-1.395,1.653-1.606,1.912c-0.015,0.017-0.031,0.029-0.057,0.031
			c-0.025,0.003-0.045,0-0.068-0.006l-0.027,0.075l0.741,0.304l0.028-0.076c-0.012-0.002-0.021-0.009-0.037-0.019
			c-0.017-0.012-0.02-0.032-0.009-0.06c0.009-0.019,0.025-0.04,0.05-0.07c0.026-0.032,0.227-0.267,0.252-0.298l1.17,0.438
			c0,0.032,0.001,0.352,0,0.392c0,0.04-0.005,0.068-0.012,0.086c-0.009,0.028-0.024,0.043-0.043,0.042
			c-0.02-0.004-0.034-0.006-0.042-0.011l-0.029,0.077l0.837,0.279l0.028-0.074c-0.021-0.008-0.038-0.02-0.052-0.038
			c-0.017-0.02-0.026-0.039-0.025-0.065c0.005-0.121-0.008-2.505-0.008-2.618c0-0.112,0.005-0.175,0.012-0.188
			c0.013-0.036,0.044-0.049,0.089-0.036l0.028-0.076l-1.057-0.395L140.466,70.69z M140.768,72.722l-0.84-0.312l0.826-0.95
			L140.768,72.722z M146.384,72.619c-0.109-0.149-0.241-0.27-0.396-0.363c-0.156-0.09-0.318-0.152-0.483-0.187
			c-0.161-0.035-0.335-0.04-0.512-0.02c-0.181,0.024-0.349,0.08-0.511,0.175c-0.161,0.091-0.304,0.225-0.425,0.395
			c-0.125,0.172-0.214,0.39-0.268,0.647c-0.055,0.264-0.06,0.499-0.013,0.704c0.045,0.202,0.122,0.378,0.233,0.525
			c0.109,0.147,0.246,0.264,0.4,0.353c0.156,0.087,0.315,0.146,0.48,0.181s0.34,0.044,0.518,0.024
			c0.176-0.017,0.345-0.072,0.506-0.16c0.157-0.092,0.302-0.223,0.425-0.391c0.123-0.171,0.212-0.389,0.265-0.652
			c0.056-0.258,0.058-0.491,0.016-0.698C146.573,72.945,146.493,72.768,146.384,72.619z M145.92,73.71
			c-0.028,0.124-0.067,0.229-0.127,0.318c-0.055,0.09-0.125,0.16-0.206,0.216c-0.078,0.054-0.166,0.092-0.261,0.112
			c-0.095,0.018-0.19,0.018-0.296-0.004c-0.1-0.021-0.186-0.059-0.266-0.114c-0.078-0.054-0.146-0.124-0.198-0.206
			c-0.056-0.082-0.089-0.177-0.105-0.28c-0.018-0.104-0.01-0.219,0.016-0.343c0.024-0.122,0.064-0.228,0.122-0.318
			c0.058-0.09,0.127-0.16,0.206-0.216c0.083-0.055,0.172-0.091,0.268-0.108c0.096-0.021,0.192-0.02,0.289,0.001
			c0.1,0.02,0.192,0.059,0.271,0.113c0.079,0.057,0.146,0.124,0.196,0.208c0.052,0.083,0.087,0.175,0.104,0.279
			C145.948,73.474,145.945,73.585,145.92,73.71z M150.955,72.784c0.026,0.005,0.055,0.016,0.087,0.03
			c0.029,0.015,0.046,0.046,0.042,0.096c0,0.013-0.019,0.043-0.058,0.091s-0.094,0.109-0.16,0.182
			c-0.063,0.071-0.849,0.875-0.902,0.932l0.037-1.239c0.001-0.05,0.019-0.079,0.052-0.092s0.066-0.021,0.104-0.023l0.003-0.082
			l-1.004-0.061l-0.003,0.082c0.031-0.005,0.063,0.004,0.09,0.021c0.027,0.021,0.042,0.054,0.041,0.104l-0.084,2.56
			c-0.003,0.05-0.017,0.084-0.047,0.1c-0.03,0.017-0.062,0.023-0.095,0.017l-0.001,0.081l1.009,0.058l0.003-0.081
			c-0.037-0.005-0.07-0.016-0.1-0.03c-0.033-0.012-0.051-0.046-0.047-0.096l0.017-0.553l0.487-0.55
			c0.014,0.034,0.488,0.991,0.512,1.042c0.022,0.056,0.036,0.087,0.036,0.103c0,0.05-0.023,0.078-0.061,0.091
			c-0.037,0.011-0.069,0.017-0.096,0.017l-0.003,0.08l1.091,0.012l0.003-0.08c-0.023-0.008-0.047-0.016-0.069-0.028
			c-0.019-0.017-0.035-0.041-0.052-0.077l-0.833-1.659c0.071-0.066,0.467-0.514,0.57-0.621c0.098-0.106,0.195-0.203,0.281-0.281
			c0.09-0.085,0.16-0.13,0.215-0.138l0.007-0.08l-1.072-0.006V72.784z M155.322,75.36c-0.021-0.008-0.034-0.025-0.044-0.047
			c-0.05-0.114-1.041-2.283-1.087-2.386s-0.068-0.16-0.068-0.176c-0.003-0.039,0.021-0.062,0.064-0.069l-0.007-0.082l-1.121,0.076
			l0.004,0.081c0.048,0.002,0.074,0.024,0.076,0.062c0.004,0.023-0.022,0.117-0.067,0.286c-0.045,0.167-0.589,2.08-0.675,2.401
			c-0.005,0.022-0.018,0.039-0.04,0.053c-0.019,0.014-0.041,0.021-0.059,0.021l0.001,0.08l0.802-0.022l-0.008-0.081
			c-0.006,0-0.023-0.002-0.043-0.005c-0.016-0.005-0.029-0.021-0.03-0.053c0-0.019,0.005-0.046,0.017-0.087
			c0.013-0.037,0.098-0.335,0.106-0.373l1.246-0.085c0.016,0.031,0.147,0.318,0.159,0.356c0.019,0.035,0.026,0.064,0.026,0.082
			c0.001,0.032-0.005,0.05-0.024,0.056c-0.017,0.006-0.031,0.009-0.04,0.009l0.005,0.081l0.88-0.088l-0.004-0.08
			C155.37,75.376,155.346,75.371,155.322,75.36z M153.281,74.545l0.365-1.205l0.528,1.146L153.281,74.545z M184.025,35.27
			c0.014,0.078,0.014,0.141,0.008,0.188c-0.009,0.049-0.044,0.079-0.106,0.091l-3.263,0.688c-0.063,0.014-0.106,0-0.134-0.041
			c-0.023-0.042-0.052-0.098-0.073-0.174l-0.101,0.021l0.316,1.538l0.104-0.022c-0.013-0.077-0.013-0.142-0.007-0.188
			c0.009-0.047,0.044-0.079,0.108-0.091l3.257-0.688c0.062-0.012,0.107,0,0.134,0.042c0.028,0.039,0.051,0.098,0.074,0.173
			l0.1-0.021l-0.311-1.537L184.025,35.27z M183.212,51.485c-0.021,0.025-0.054,0.029-0.102,0.016l-2.433-0.785
			c-0.044-0.015-0.069-0.04-0.075-0.071c-0.002-0.029-0.002-0.066,0.006-0.108l-0.076-0.025l-0.263,0.907l0.075,0.025
			c0.02-0.042,0.038-0.071,0.06-0.094c0.022-0.024,0.056-0.027,0.105-0.013l1.262,0.409c-0.183,0.061-1.309,0.444-1.407,0.478
			c-0.098,0.032-0.136,0.042-0.157,0.041c-0.05-0.007-0.069-0.036-0.076-0.063c0-0.027-0.006-0.054,0-0.079l-0.08-0.025
			l-0.425,1.212l0.075,0.023c0.019-0.037,0.037-0.067,0.061-0.089c0.021-0.023,0.054-0.028,0.102-0.013l2.434,0.785
			c0.051,0.015,0.074,0.037,0.079,0.066c0.004,0.03,0.004,0.063-0.004,0.1l0.076,0.025l0.311-0.867l-0.079-0.025
			c-0.014,0.038-0.032,0.066-0.056,0.088s-0.057,0.024-0.102,0.007l-1.675-0.54l-0.011-0.015c0.259-0.075,1.191-0.4,1.385-0.471
			c0.192-0.067,0.357-0.123,0.486-0.164c0.129-0.042,0.211-0.055,0.25-0.043c0.038,0.013,0.057,0.039,0.053,0.079
			c-0.002,0.035-0.01,0.069-0.019,0.098l0.077,0.021l0.282-0.957l-0.077-0.024C183.254,51.434,183.234,51.465,183.212,51.485z
			 M183.312,48.006c-0.169-0.123-0.388-0.21-0.649-0.263c-0.26-0.052-0.493-0.054-0.701-0.008c-0.204,0.045-0.38,0.125-0.531,0.237
			c-0.146,0.11-0.269,0.243-0.359,0.398c-0.09,0.157-0.151,0.316-0.186,0.482c-0.032,0.165-0.036,0.338-0.014,0.517
			c0.022,0.178,0.085,0.346,0.178,0.508c0.096,0.159,0.228,0.301,0.397,0.423c0.173,0.121,0.388,0.211,0.648,0.263
			c0.264,0.052,0.5,0.057,0.703,0.01c0.202-0.049,0.379-0.129,0.525-0.239c0.146-0.111,0.264-0.246,0.35-0.402
			c0.085-0.156,0.146-0.317,0.18-0.482c0.031-0.166,0.039-0.34,0.02-0.516c-0.018-0.178-0.076-0.347-0.164-0.506
			C183.615,48.269,183.485,48.128,183.312,48.006z M183.174,49.312c-0.021,0.101-0.057,0.188-0.11,0.268
			c-0.056,0.083-0.127,0.148-0.205,0.202c-0.083,0.054-0.176,0.088-0.281,0.105c-0.104,0.019-0.218,0.014-0.342-0.01
			c-0.123-0.025-0.229-0.065-0.319-0.123c-0.09-0.057-0.162-0.124-0.217-0.206c-0.057-0.08-0.092-0.169-0.112-0.262
			c-0.022-0.097-0.022-0.194,0-0.294c0.021-0.101,0.058-0.191,0.113-0.271c0.054-0.077,0.122-0.143,0.202-0.198
			c0.084-0.052,0.176-0.088,0.28-0.104s0.221-0.014,0.341,0.011c0.126,0.025,0.233,0.065,0.323,0.123
			c0.088,0.056,0.161,0.125,0.217,0.205c0.054,0.081,0.09,0.167,0.11,0.261C183.194,49.111,183.194,49.21,183.174,49.312z
			 M138.03,71.561l0.393-0.781l-0.056-0.027c-0.029,0.054-0.059,0.086-0.086,0.095c-0.028,0.008-0.053,0.008-0.069-0.002
			l-0.905-0.46l0.247-0.484l1.401,0.712c0.021,0.008,0.036,0.031,0.045,0.058c0.011,0.026,0,0.071-0.031,0.129l0.06,0.031
			l0.408-0.806l-0.058-0.027c-0.029,0.053-0.055,0.086-0.084,0.09c-0.028,0.007-0.05,0.005-0.07-0.004l-2.179-1.104l-0.038,0.071
			c0.035,0.022,0.06,0.046,0.08,0.07c0.024,0.027,0.024,0.063-0.001,0.106l-1.157,2.282c-0.023,0.043-0.049,0.065-0.083,0.063
			c-0.033-0.002-0.068-0.01-0.104-0.022l-0.037,0.071l2.139,1.086c0.04,0.019,0.063,0.037,0.079,0.053
			c0.014,0.019,0.014,0.061,0.003,0.124l0.047,0.022l0.398-0.786l-0.057-0.032c-0.068,0.093-0.135,0.12-0.199,0.088l-1.367-0.69
			l0.302-0.597l0.902,0.46c0.021,0.01,0.037,0.028,0.046,0.059c0.01,0.026,0.001,0.068-0.027,0.125L138.03,71.561z M151.547,5.716
			c-20.397,0-36.991,16.596-36.991,36.993c0,20.398,16.594,36.993,36.991,36.993c20.398,0,36.993-16.595,36.993-36.993
			C188.54,22.312,171.945,5.716,151.547,5.716z M151.547,78.422c-19.69,0-35.711-16.021-35.711-35.713
			c0-19.691,16.021-35.713,35.711-35.713c19.692,0,35.713,16.021,35.713,35.713C187.26,62.401,171.239,78.422,151.547,78.422z
			 M178.275,61.829c-0.023,0.01-0.044,0.014-0.066,0.005c-0.117-0.042-2.377-0.752-2.486-0.789
			c-0.104-0.036-0.164-0.062-0.177-0.069c-0.029-0.025-0.034-0.06-0.008-0.097l-0.065-0.051l-0.699,0.882l0.063,0.053
			c0.032-0.036,0.068-0.041,0.099-0.018c0.016,0.018,0.076,0.102,0.166,0.248c0.096,0.148,1.149,1.826,1.329,2.105
			c0.014,0.02,0.018,0.042,0.014,0.065c-0.002,0.024-0.014,0.047-0.025,0.062l0.063,0.052L177,63.664l-0.064-0.05
			c-0.008,0.011-0.019,0.02-0.031,0.029c-0.016,0.013-0.034,0.009-0.062-0.01c-0.013-0.014-0.028-0.037-0.049-0.071
			c-0.023-0.034-0.184-0.292-0.203-0.323l0.772-0.982c0.03,0.01,0.324,0.104,0.363,0.117c0.035,0.015,0.062,0.026,0.076,0.038
			c0.025,0.021,0.033,0.036,0.025,0.055c-0.009,0.017-0.015,0.029-0.021,0.037l0.065,0.052l0.521-0.717l-0.065-0.048
			C178.315,61.808,178.298,61.821,178.275,61.829z M176.317,62.803l-0.655-1.076l1.207,0.371L176.317,62.803z M181.515,54.522
			c-0.143-0.154-0.336-0.285-0.583-0.394c-0.245-0.105-0.472-0.157-0.683-0.155c-0.211,0.003-0.401,0.042-0.57,0.12
			c-0.169,0.077-0.311,0.182-0.433,0.314c-0.124,0.133-0.218,0.277-0.285,0.432c-0.066,0.155-0.107,0.322-0.123,0.501
			c-0.016,0.183,0.006,0.359,0.065,0.535c0.058,0.177,0.159,0.341,0.303,0.497c0.145,0.157,0.334,0.288,0.579,0.393
			c0.246,0.109,0.472,0.159,0.686,0.157c0.207-0.004,0.398-0.044,0.562-0.122c0.165-0.077,0.306-0.187,0.425-0.32
			c0.116-0.134,0.209-0.28,0.276-0.437c0.068-0.15,0.112-0.318,0.132-0.496c0.018-0.179,0-0.355-0.057-0.53
			C181.751,54.844,181.652,54.677,181.515,54.522z M181.102,55.769c-0.039,0.094-0.097,0.175-0.166,0.241
			c-0.071,0.067-0.153,0.117-0.243,0.152c-0.092,0.033-0.192,0.05-0.294,0.044c-0.108-0.006-0.218-0.033-0.334-0.084
			c-0.115-0.05-0.212-0.111-0.287-0.186c-0.078-0.074-0.132-0.155-0.168-0.244c-0.037-0.092-0.057-0.186-0.057-0.284
			c0.003-0.097,0.023-0.193,0.061-0.285c0.042-0.094,0.1-0.174,0.17-0.239c0.069-0.065,0.15-0.115,0.24-0.15
			c0.092-0.034,0.191-0.05,0.297-0.044c0.104,0.004,0.218,0.03,0.331,0.083c0.117,0.049,0.213,0.111,0.288,0.186
			c0.076,0.072,0.132,0.156,0.168,0.247c0.039,0.092,0.055,0.184,0.055,0.277C181.162,55.579,181.143,55.675,181.102,55.769z
			 M172.073,68.365c-0.031,0.009-0.063-0.007-0.093-0.046l-1.582-2.004c-0.032-0.037-0.038-0.072-0.024-0.102
			c0.016-0.03,0.045-0.063,0.082-0.102l-0.048-0.062l-0.841,0.656l0.046,0.061c0.05-0.027,0.088-0.048,0.118-0.056
			c0.034-0.009,0.063,0.008,0.095,0.045l1.587,2.004c0.026,0.038,0.033,0.072,0.02,0.101c-0.015,0.031-0.044,0.063-0.083,0.101
			l0.051,0.064l0.839-0.655l-0.049-0.062C172.146,68.337,172.106,68.357,172.073,68.365z M176.11,64.524
			c-0.023,0.004-0.052,0.002-0.095-0.01l-1.781-0.494c-0.002-0.096-0.067-0.689-0.078-0.836c-0.012-0.147-0.017-0.28-0.02-0.401
			c-0.001-0.123,0.014-0.206,0.044-0.249l-0.059-0.057l-0.721,0.788l0.06,0.055c0.019-0.019,0.05-0.031,0.078-0.046
			c0.034-0.013,0.065-0.001,0.1,0.032c0.011,0.01,0.019,0.045,0.03,0.108c0.009,0.06,0.021,0.139,0.031,0.237
			c0.009,0.096,0.075,1.216,0.081,1.296l-0.892-0.86c-0.037-0.033-0.049-0.068-0.033-0.101c0.01-0.033,0.029-0.062,0.05-0.092
			l-0.057-0.057l-0.718,0.704l0.058,0.057c0.018-0.026,0.045-0.046,0.078-0.055c0.031-0.008,0.064,0.006,0.102,0.042l1.835,1.776
			c0.038,0.034,0.053,0.067,0.042,0.1c-0.004,0.034-0.02,0.062-0.046,0.079l0.06,0.058l0.724-0.705l-0.061-0.057
			c-0.026,0.023-0.058,0.042-0.09,0.057c-0.034,0.015-0.065,0.004-0.102-0.032l-0.396-0.382l-0.085-0.731
			c0.033,0.012,1.064,0.304,1.119,0.32c0.056,0.02,0.085,0.034,0.096,0.042c0.035,0.034,0.046,0.067,0.029,0.106
			c-0.016,0.036-0.035,0.062-0.052,0.081l0.059,0.056l0.733-0.804l-0.059-0.058C176.158,64.509,176.134,64.52,176.11,64.524z
			 M179.97,59.206c-0.022,0.018-0.058,0.012-0.099-0.014l-0.715-0.429l0.309-0.521c0.069-0.115,0.125-0.232,0.165-0.351
			c0.04-0.121,0.054-0.239,0.04-0.356c-0.017-0.117-0.061-0.232-0.143-0.348c-0.077-0.111-0.197-0.22-0.363-0.319
			c-0.171-0.103-0.326-0.159-0.461-0.172c-0.136-0.015-0.257,0-0.367,0.044c-0.108,0.043-0.208,0.11-0.295,0.202
			c-0.087,0.094-0.162,0.197-0.23,0.311l-0.727,1.218l0.069,0.042c0.008-0.009,0.026-0.019,0.048-0.032
			c0.023-0.012,0.058-0.007,0.103,0.019l2.194,1.314c0.044,0.025,0.065,0.05,0.065,0.078c0,0.026-0.004,0.046-0.004,0.056
			l0.07,0.042l0.478-0.797l-0.069-0.043C180.021,59.172,179.997,59.192,179.97,59.206z M178.933,58.034l-0.266,0.442l-0.686-0.41
			l0.285-0.477c0.072-0.117,0.146-0.186,0.232-0.202c0.081-0.017,0.183,0.009,0.306,0.083c0.126,0.073,0.194,0.152,0.216,0.24
			C179.039,57.798,179.011,57.907,178.933,58.034z M131.437,66.467c0.097-0.006,0.686-0.101,0.832-0.119
			c0.146-0.02,0.279-0.034,0.397-0.04c0.123-0.009,0.208,0.002,0.255,0.03l0.052-0.06l-0.822-0.681l-0.053,0.062
			c0.017,0.023,0.034,0.048,0.051,0.08c0.011,0.027,0.003,0.061-0.027,0.101c-0.012,0.01-0.046,0.019-0.107,0.033
			c-0.061,0.011-0.139,0.025-0.235,0.04c-0.095,0.015-1.21,0.141-1.291,0.149l0.815-0.935c0.03-0.037,0.063-0.051,0.098-0.039
			c0.032,0.013,0.065,0.026,0.097,0.047l0.051-0.062l-0.739-0.683l-0.055,0.062c0.028,0.017,0.047,0.042,0.057,0.073
			c0.011,0.034-0.002,0.07-0.035,0.106l-1.683,1.93c-0.033,0.036-0.065,0.053-0.099,0.049c-0.034-0.006-0.062-0.021-0.084-0.047
			l-0.053,0.061l0.746,0.684l0.055-0.062c-0.025-0.022-0.045-0.055-0.059-0.086c-0.016-0.031-0.011-0.067,0.023-0.103l0.362-0.417
			l0.726-0.118c-0.012,0.033-0.249,1.074-0.264,1.133c-0.013,0.053-0.027,0.086-0.036,0.098c-0.033,0.036-0.066,0.047-0.105,0.032
			c-0.036-0.013-0.064-0.029-0.082-0.046l-0.053,0.059l0.837,0.701l0.053-0.062c-0.017-0.019-0.026-0.043-0.034-0.064
			c-0.007-0.024-0.004-0.055,0.008-0.095L131.437,66.467z M140.673,11.249c0.046,0.001,0.079,0.035,0.1,0.094l1.044,3.166
			c0.022,0.062,0.014,0.105-0.022,0.135c-0.038,0.033-0.092,0.063-0.166,0.091l0.033,0.102l1.493-0.487l-0.034-0.099
			c-0.078,0.02-0.14,0.027-0.185,0.024c-0.053-0.001-0.087-0.033-0.106-0.094l-1.043-3.162c-0.021-0.062-0.014-0.105,0.024-0.138
			c0.037-0.031,0.093-0.061,0.166-0.093l-0.033-0.1l-1.491,0.486l0.03,0.1C140.56,11.254,140.623,11.246,140.673,11.249z
			 M136.865,14.698c0.173,0.07,0.362,0.1,0.566,0.084c0.207-0.014,0.419-0.055,0.636-0.122c0.214-0.065,0.416-0.127,0.606-0.186
			c0.185-0.056,0.346-0.088,0.48-0.097c0.137-0.009,0.229,0.041,0.279,0.146c0.036,0.081,0.038,0.153,0.006,0.223
			c-0.026,0.067-0.072,0.13-0.134,0.187c-0.061,0.057-0.128,0.107-0.201,0.145c-0.071,0.04-0.129,0.068-0.171,0.09
			c-0.146,0.065-0.308,0.124-0.483,0.177c-0.177,0.053-0.347,0.092-0.507,0.116c-0.16,0.026-0.299,0.035-0.408,0.03
			c-0.114-0.005-0.183-0.033-0.206-0.088c-0.011-0.021-0.017-0.038-0.022-0.052c-0.004-0.016-0.007-0.025-0.012-0.038l-0.114-0.004
			l0.188,1.195l0.091-0.013c0.014-0.04,0.024-0.073,0.041-0.111c0.014-0.035,0.041-0.061,0.074-0.075
			c0.014-0.006,0.075-0.019,0.189-0.036c0.112-0.015,0.247-0.04,0.414-0.074c0.164-0.033,0.342-0.08,0.529-0.138
			c0.188-0.059,0.368-0.126,0.544-0.205c0.271-0.126,0.496-0.262,0.67-0.407c0.174-0.147,0.304-0.303,0.381-0.47
			c0.084-0.165,0.122-0.334,0.118-0.501c0-0.17-0.034-0.33-0.106-0.482c-0.105-0.233-0.247-0.389-0.422-0.465
			c-0.177-0.076-0.366-0.108-0.571-0.098c-0.207,0.013-0.422,0.051-0.638,0.114c-0.218,0.063-0.42,0.125-0.609,0.182
			c-0.184,0.057-0.347,0.092-0.476,0.104c-0.136,0.016-0.226-0.026-0.268-0.122c-0.042-0.09-0.04-0.173,0.01-0.251
			c0.051-0.076,0.116-0.146,0.196-0.212c0.08-0.066,0.163-0.122,0.256-0.168c0.086-0.044,0.153-0.075,0.198-0.095
			c0.128-0.057,0.254-0.101,0.381-0.132c0.128-0.03,0.247-0.05,0.354-0.062c0.109-0.011,0.199-0.015,0.271-0.01
			c0.072,0.006,0.113,0.019,0.123,0.039c0.007,0.016,0.014,0.032,0.02,0.05c0.005,0.018,0.008,0.03,0.014,0.042l0.115,0.002
			l-0.023-1.193l-0.095,0.005c-0.011,0.025-0.023,0.055-0.036,0.089c-0.012,0.036-0.039,0.062-0.079,0.079
			c-0.038,0.018-0.105,0.037-0.202,0.057c-0.101,0.019-0.219,0.046-0.36,0.078c-0.137,0.03-0.291,0.072-0.457,0.121
			c-0.163,0.054-0.334,0.117-0.504,0.195c-0.295,0.135-0.525,0.287-0.693,0.458c-0.169,0.169-0.291,0.341-0.359,0.516
			c-0.075,0.173-0.105,0.343-0.1,0.509c0.006,0.167,0.04,0.312,0.095,0.433C136.557,14.48,136.693,14.627,136.865,14.698z
			 M127.275,19.741l0.07,0.075c0.051-0.035,0.093-0.061,0.136-0.079c0.047-0.018,0.093-0.002,0.134,0.043l2.256,2.426
			c0.043,0.046,0.055,0.09,0.032,0.134c-0.019,0.042-0.047,0.086-0.089,0.131l0.072,0.076l2.549-2.444
			c0.049-0.043,0.085-0.069,0.115-0.08c0.027-0.011,0.081,0.002,0.154,0.044l0.056-0.055l-0.757-0.818l-0.068,0.065
			c0.073,0.128,0.073,0.226-0.003,0.3l-1.646,1.533l-0.584-0.63l1.086-1.015c0.026-0.021,0.057-0.033,0.1-0.035
			c0.039-0.003,0.087,0.025,0.144,0.086l0.068-0.065l-0.771-0.828l-0.068,0.065c0.055,0.061,0.08,0.108,0.075,0.15
			c-0.007,0.042-0.021,0.071-0.044,0.093l-1.088,1.015l-0.483-0.519l1.689-1.575c0.025-0.023,0.056-0.035,0.098-0.037
			c0.039-0.002,0.093,0.028,0.148,0.093l0.069-0.065l-0.794-0.854l-0.07,0.065c0.054,0.059,0.081,0.108,0.071,0.146
			c-0.007,0.04-0.023,0.069-0.045,0.091L127.275,19.741z M143.408,11.391c-0.017-0.079-0.012-0.134,0.016-0.163
			c0.024-0.028,0.053-0.046,0.087-0.055l1.108-0.223l0.528,2.626c0.013,0.063,0.001,0.106-0.033,0.13
			c-0.034,0.027-0.074,0.045-0.113,0.06l0.018,0.103l1.398-0.281l-0.021-0.102c-0.039,0.003-0.086-0.001-0.127-0.011
			c-0.042-0.01-0.068-0.045-0.08-0.107l-0.528-2.625l1.109-0.224c0.031-0.007,0.067-0.001,0.102,0.017
			c0.033,0.017,0.059,0.062,0.075,0.143l0.094-0.017l-0.251-1.253l-0.093,0.02c0.015,0.08,0.011,0.136-0.017,0.165
			c-0.026,0.029-0.053,0.049-0.085,0.055l-3.26,0.654c-0.034,0.007-0.067,0-0.103-0.014c-0.034-0.019-0.058-0.065-0.077-0.147
			l-0.094,0.017l0.251,1.251L143.408,11.391z M131.52,16.137c0.042-0.005,0.079,0.018,0.114,0.072l1.868,2.756
			c0.034,0.053,0.042,0.097,0.021,0.133c-0.02,0.035-0.042,0.064-0.065,0.085l0.06,0.088l1.101-0.801l-0.059-0.086
			c-0.051,0.027-0.098,0.046-0.142,0.053c-0.042,0.008-0.08-0.013-0.118-0.067l-0.665-0.983l0.632-0.428
			c0.029,0.021,0.884,0.484,0.998,0.55c0.11,0.067,0.173,0.109,0.188,0.136c0.027,0.037,0.027,0.073-0.005,0.111
			c-0.027,0.037-0.058,0.064-0.089,0.088l0.061,0.085l1.405-0.878l-0.062-0.086c-0.047,0.032-0.101,0.049-0.16,0.046
			c-0.063-0.001-0.117-0.013-0.167-0.035l-1.328-0.608c0.151-0.229,0.244-0.467,0.279-0.711c0.036-0.244-0.035-0.496-0.21-0.756
			c-0.224-0.333-0.489-0.516-0.799-0.553c-0.31-0.038-0.628,0.057-0.956,0.279l-2.079,1.464l0.062,0.086
			C131.443,16.156,131.482,16.145,131.52,16.137z M133.626,15.44c0.195-0.135,0.354-0.186,0.472-0.159
			c0.118,0.029,0.214,0.099,0.288,0.21c0.092,0.129,0.115,0.255,0.08,0.376c-0.037,0.119-0.129,0.227-0.267,0.322l-0.935,0.63
			l-0.526-0.78L133.626,15.44z M147.773,9.626c0.052,0.012,0.089,0.032,0.108,0.065l1.593,2.139l0.057,1.121
			c0.002,0.064-0.018,0.105-0.051,0.126c-0.037,0.019-0.071,0.031-0.109,0.04l0.005,0.104l1.388-0.07l-0.004-0.104
			c-0.038-0.004-0.074-0.014-0.114-0.029c-0.036-0.016-0.056-0.056-0.061-0.119l-0.057-1.157l1.223-2.247
			c0.019-0.036,0.053-0.061,0.098-0.075c0.047-0.014,0.084-0.021,0.109-0.021l-0.005-0.106l-1.542,0.019l0.006,0.103
			c0.025-0.001,0.06,0.003,0.103,0.009c0.042,0.007,0.065,0.032,0.065,0.079c0.002,0.028-0.026,0.121-0.085,0.229
			c-0.058,0.106-0.524,0.939-0.545,0.986c-0.084-0.112-0.676-0.886-0.73-0.961c-0.053-0.075-0.079-0.153-0.08-0.183
			c-0.003-0.046,0.018-0.073,0.063-0.086c0.043-0.008,0.081-0.016,0.115-0.018l-0.006-0.104l-1.673,0.147l0.007,0.104
			C147.685,9.615,147.724,9.618,147.773,9.626z M166.809,17.26c-0.051-0.038-0.093-0.078-0.116-0.113
			c-0.024-0.037-0.021-0.083,0.01-0.138l0.701-1.116l1.483,0.93l-0.701,1.121c-0.035,0.054-0.073,0.077-0.117,0.068
			c-0.045-0.007-0.097-0.025-0.152-0.055l-0.056,0.088l1.23,0.856l0.054-0.088c-0.053-0.037-0.09-0.075-0.114-0.113
			c-0.028-0.037-0.022-0.083,0.01-0.138l1.773-2.825c0.034-0.053,0.076-0.075,0.12-0.067c0.043,0.006,0.094,0.025,0.152,0.053
			l0.055-0.089l-1.241-0.857l-0.057,0.089c0.051,0.038,0.09,0.076,0.114,0.113c0.028,0.037,0.025,0.083-0.008,0.138l-0.587,0.95
			l-1.486-0.931l0.591-0.955c0.034-0.053,0.072-0.075,0.118-0.066c0.044,0.005,0.095,0.024,0.156,0.053l0.054-0.089l-1.304-0.752
			l-0.059,0.089c0.05,0.037,0.091,0.078,0.116,0.114c0.026,0.036,0.022,0.083-0.01,0.136l-1.764,2.838
			c-0.032,0.054-0.072,0.077-0.117,0.069c-0.042-0.009-0.095-0.027-0.15-0.055l-0.056,0.088l1.301,0.743L166.809,17.26z
			 M161.095,14.605c-0.056-0.026-0.103-0.056-0.139-0.086c-0.032-0.028-0.039-0.075-0.018-0.136l0.386-1.12l1.372,0.475
			c0.026,0.011,0.054,0.033,0.076,0.066c0.02,0.036,0.016,0.095-0.01,0.177l0.089,0.031l0.382-1.102l-0.093-0.03
			c-0.025,0.077-0.059,0.121-0.093,0.132c-0.04,0.012-0.074,0.012-0.102,0.003l-1.37-0.476l0.264-0.761l2.027,0.704
			c0.029,0.009,0.053,0.031,0.078,0.066c0.017,0.034,0.017,0.093-0.015,0.175l0.092,0.034l0.387-1.119l-0.09-0.03
			c-0.025,0.078-0.059,0.123-0.097,0.136c-0.037,0.011-0.074,0.011-0.101,0.001l-3.246-1.136l-0.03,0.101
			c0.063,0.028,0.114,0.059,0.15,0.089c0.037,0.029,0.043,0.075,0.021,0.136l-1.09,3.153c-0.021,0.062-0.053,0.092-0.098,0.096
			c-0.045,0.002-0.103-0.004-0.162-0.019l-0.034,0.097l1.428,0.439L161.095,14.605z M155.749,12.985
			c0.171,0.193,0.372,0.345,0.605,0.459c0.234,0.115,0.473,0.196,0.716,0.243c0.244,0.046,0.494,0.057,0.753,0.036
			c0.261-0.023,0.505-0.093,0.731-0.209c0.228-0.117,0.429-0.284,0.602-0.503c0.168-0.22,0.286-0.501,0.348-0.843
			c0.064-0.336,0.059-0.64-0.021-0.907c-0.078-0.27-0.201-0.501-0.369-0.695c-0.174-0.194-0.372-0.353-0.605-0.475
			c-0.231-0.119-0.47-0.203-0.714-0.249c-0.242-0.044-0.494-0.055-0.754-0.027c-0.262,0.028-0.507,0.101-0.734,0.221
			c-0.229,0.119-0.43,0.289-0.6,0.512c-0.172,0.223-0.289,0.501-0.352,0.84c-0.063,0.341-0.06,0.645,0.021,0.911
			S155.579,12.794,155.749,12.985z M156.368,11.576c0.028-0.16,0.086-0.298,0.162-0.414c0.079-0.115,0.176-0.207,0.291-0.277
			c0.112-0.071,0.241-0.117,0.378-0.141c0.14-0.024,0.281-0.024,0.425,0.005c0.148,0.027,0.286,0.08,0.399,0.149
			c0.122,0.073,0.221,0.163,0.302,0.27c0.082,0.107,0.136,0.229,0.169,0.365c0.027,0.136,0.027,0.283,0,0.444
			c-0.031,0.159-0.085,0.296-0.162,0.412c-0.08,0.114-0.175,0.209-0.292,0.278c-0.114,0.069-0.239,0.117-0.375,0.141
			c-0.136,0.025-0.278,0.025-0.43-0.004c-0.144-0.027-0.278-0.078-0.395-0.151c-0.119-0.071-0.223-0.163-0.303-0.27
			c-0.083-0.106-0.139-0.228-0.168-0.363C156.336,11.884,156.336,11.736,156.368,11.576z M120.298,50.569
			c0.165,0.009,0.336-0.004,0.513-0.041l1.486-0.313c0.047-0.01,0.079-0.002,0.101,0.025c0.019,0.027,0.035,0.061,0.047,0.102
			l0.082-0.018l-0.233-0.941l-0.078,0.016c-0.001,0.021-0.007,0.042-0.016,0.063c-0.007,0.025-0.039,0.042-0.086,0.053l-1.607,0.337
			c-0.168,0.035-0.297,0.013-0.387-0.068c-0.095-0.083-0.156-0.204-0.192-0.362c-0.031-0.159-0.024-0.295,0.029-0.405
			c0.051-0.111,0.163-0.186,0.33-0.221l1.604-0.338c0.049-0.01,0.081-0.004,0.101,0.013c0.017,0.02,0.028,0.036,0.036,0.053
			l0.08-0.017l-0.17-0.96l-0.077,0.016c0.002,0.044,0.002,0.082-0.004,0.113s-0.035,0.054-0.084,0.064l-1.485,0.314
			c-0.177,0.038-0.336,0.095-0.482,0.168c-0.149,0.076-0.268,0.173-0.366,0.294c-0.095,0.117-0.158,0.265-0.19,0.437
			c-0.029,0.172-0.019,0.373,0.026,0.606c0.052,0.234,0.122,0.422,0.22,0.566c0.098,0.146,0.215,0.252,0.351,0.325
			C119.982,50.521,120.133,50.559,120.298,50.569z M124.181,23.727c0.014-0.013,0.038-0.027,0.077-0.034
			c0.031-0.004,0.12,0.016,0.296,0.074c0.171,0.061,2.64,0.978,2.802,1.04c0.167,0.065,0.27,0.109,0.276,0.112
			c0.035,0.03,0.052,0.065,0.05,0.112c-0.005,0.044-0.016,0.078-0.045,0.104l0.084,0.065l1.029-1.315l-0.083-0.064
			c-0.019,0.034-0.049,0.057-0.095,0.068c-0.042,0.013-0.082,0.005-0.117-0.022c-0.009-0.008-0.076-0.091-0.164-0.229
			c-0.089-0.139-1.682-2.73-1.721-2.783c-0.012-0.018-0.038-0.065-0.033-0.102c0.002-0.035,0.019-0.066,0.039-0.104l-0.081-0.063
			l-0.843,0.996l0.085,0.065c0.016-0.021,0.039-0.05,0.074-0.082c0.033-0.035,0.067-0.036,0.106-0.009
			c0.015,0.013,0.066,0.097,0.159,0.245c0.094,0.152,0.977,1.609,1.079,1.776l-0.009,0.013c-0.036-0.017-1.924-0.7-2.025-0.739
			c-0.102-0.041-0.157-0.062-0.165-0.071c-0.039-0.029-0.043-0.063-0.018-0.107c0.028-0.043,0.05-0.078,0.068-0.103l-0.081-0.064
			l-0.869,1.2l0.082,0.064C124.151,23.755,124.164,23.739,124.181,23.727z M125.049,62.054c0.073-0.099,1.459-2.041,1.526-2.132
			c0.066-0.09,0.107-0.139,0.116-0.144c0.035-0.023,0.067-0.018,0.098,0.019l0.064-0.044l-0.627-0.938l-0.065,0.045
			c0.022,0.039,0.019,0.072-0.019,0.096c-0.017,0.011-0.113,0.041-0.28,0.084s-2.097,0.527-2.417,0.611
			c-0.022,0.006-0.044,0.005-0.065-0.007c-0.022-0.012-0.038-0.026-0.051-0.045l-0.067,0.045l0.426,0.679l0.062-0.045
			c-0.005-0.01-0.011-0.021-0.017-0.039c-0.006-0.017,0.005-0.036,0.031-0.053c0.014-0.01,0.041-0.021,0.081-0.029
			c0.041-0.008,0.337-0.082,0.376-0.092l0.692,1.041c-0.018,0.026-0.202,0.282-0.228,0.313c-0.025,0.032-0.044,0.056-0.059,0.065
			c-0.028,0.017-0.047,0.017-0.06,0.007c-0.015-0.014-0.023-0.025-0.03-0.034l-0.067,0.044l0.515,0.723l0.064-0.046
			c-0.009-0.017-0.018-0.039-0.02-0.064C125.025,62.093,125.035,62.071,125.049,62.054z M124.718,59.938l1.229-0.286l-0.729,1.032
			L124.718,59.938z M125.377,57.782c0.045-0.021,0.078-0.024,0.101-0.008c0.023,0.016,0.044,0.033,0.058,0.055l0.074-0.038
			l-0.584-1.042l-0.072,0.038c0.011,0.026,0.017,0.05,0.021,0.071c0.006,0.019-0.002,0.033-0.021,0.043
			c-0.021,0.011-0.074,0.021-0.166,0.032c-0.091,0.009-0.939,0.073-1.056,0.084c0.026-0.025,0.595-0.67,0.676-0.755
			c0.08-0.09,0.131-0.138,0.146-0.146c0.019-0.011,0.033-0.009,0.049,0.009c0.013,0.015,0.026,0.037,0.044,0.059l0.071-0.039
			l-0.509-1.072l-0.071,0.038c0.009,0.027,0.012,0.055,0.012,0.086c0,0.03-0.021,0.057-0.063,0.078l-2.275,1.173
			c-0.043,0.021-0.079,0.025-0.103,0.008c-0.023-0.02-0.046-0.041-0.062-0.062l-0.071,0.038l0.356,0.768l0.074-0.037
			c-0.015-0.042-0.025-0.076-0.025-0.109c-0.002-0.032,0.021-0.06,0.062-0.083l1.729-0.889l0.005,0.009l-1.372,1.584l2.096-0.176
			l0.004,0.008l-1.724,0.891c-0.044,0.023-0.077,0.024-0.104,0.007c-0.023-0.018-0.047-0.043-0.069-0.076l-0.07,0.035l0.439,0.788
			l0.071-0.038c-0.01-0.024-0.013-0.053-0.013-0.078c0.001-0.028,0.024-0.056,0.067-0.077L125.377,57.782z M129.106,62.774
			c0.03,0.016,0.059,0.036,0.089,0.067l0.062-0.05l-0.64-0.728l-0.062,0.05c0.009,0.018,0.012,0.037,0.017,0.062
			c0.004,0.025-0.014,0.056-0.054,0.085l-1.268,1.04c-0.134,0.109-0.259,0.147-0.381,0.117c-0.115-0.028-0.23-0.104-0.331-0.229
			c-0.104-0.127-0.158-0.252-0.165-0.374c-0.005-0.123,0.06-0.239,0.19-0.347l1.273-1.046c0.038-0.03,0.071-0.042,0.094-0.034
			c0.024,0.006,0.044,0.017,0.059,0.029l0.063-0.05l-0.596-0.774l-0.061,0.05c0.021,0.036,0.036,0.07,0.049,0.104
			c0.009,0.031-0.008,0.062-0.047,0.094l-1.174,0.97c-0.14,0.114-0.258,0.238-0.354,0.372s-0.156,0.276-0.187,0.428
			c-0.033,0.151-0.021,0.31,0.033,0.478c0.052,0.165,0.152,0.34,0.308,0.524c0.146,0.182,0.299,0.316,0.449,0.4
			c0.155,0.084,0.31,0.126,0.465,0.126c0.154,0,0.303-0.035,0.457-0.103c0.147-0.069,0.292-0.159,0.434-0.272l1.17-0.966
			C129.043,62.767,129.076,62.761,129.106,62.774z M122.852,52.55c0.089-0.069,0.141-0.105,0.153-0.109
			c0.038-0.012,0.065,0.004,0.085,0.046l0.077-0.025l-0.349-1.069l-0.075,0.022c0.011,0.047-0.004,0.076-0.04,0.089
			c-0.023,0.006-0.12,0.008-0.294,0.004c-0.177-0.004-2.165-0.063-2.496-0.068c-0.023,0-0.043-0.009-0.06-0.025
			c-0.019-0.017-0.031-0.036-0.037-0.058l-0.077,0.025l0.225,0.768l0.076-0.024c-0.005-0.009-0.005-0.026-0.008-0.043
			c-0.002-0.017,0.015-0.033,0.045-0.041c0.017-0.006,0.045-0.009,0.084-0.006c0.042,0.001,0.348,0.012,0.386,0.014l0.387,1.19
			c-0.028,0.018-0.274,0.216-0.306,0.24c-0.031,0.022-0.058,0.038-0.075,0.043c-0.029,0.012-0.048,0.008-0.06-0.009
			c-0.01-0.015-0.017-0.028-0.019-0.038l-0.076,0.024l0.296,0.831l0.079-0.025c-0.009-0.018-0.009-0.042-0.006-0.064
			c0.006-0.023,0.016-0.043,0.034-0.057C120.903,54.11,122.765,52.618,122.852,52.55z M122.32,52.117l-0.981,0.795l-0.277-0.849
			L122.32,52.117z M172.966,17.777c-0.205,0.102-2.663,1.321-3.055,1.521c-0.026,0.015-0.056,0.017-0.09,0.006
			c-0.032-0.01-0.062-0.025-0.085-0.047l-0.069,0.079l0.937,0.769l0.068-0.076c-0.012-0.014-0.026-0.029-0.043-0.051
			c-0.015-0.021-0.008-0.047,0.019-0.078c0.016-0.017,0.048-0.036,0.094-0.061c0.049-0.023,0.437-0.208,0.47-0.229l1.37,1.221
			c-0.013,0.041-0.154,0.473-0.172,0.52c-0.02,0.052-0.038,0.084-0.052,0.103c-0.028,0.029-0.054,0.037-0.078,0.024
			c-0.022-0.013-0.04-0.024-0.054-0.035l-0.068,0.08l0.95,0.957l0.068-0.078c-0.023-0.02-0.043-0.045-0.058-0.078
			c-0.015-0.032-0.015-0.062-0.002-0.091c0.056-0.152,1.104-3.31,1.152-3.445c0.05-0.141,0.083-0.217,0.094-0.229
			c0.033-0.039,0.078-0.037,0.134,0.003l0.067-0.078l-1.215-1.104l-0.066,0.078c0.045,0.051,0.052,0.095,0.018,0.134
			C173.282,17.613,173.169,17.675,172.966,17.777z M172.8,20.185l-0.979-0.873l1.494-0.707L172.8,20.185z M120.345,31.141
			c0.037-0.032,0.079-0.035,0.139-0.008l3.047,1.354c0.06,0.025,0.091,0.059,0.091,0.103s-0.011,0.09-0.027,0.142l0.098,0.043
			l0.489-1.267l-0.097-0.042c-0.029,0.05-0.059,0.09-0.091,0.119c-0.031,0.027-0.077,0.029-0.137,0.004l-2.088-0.925l-0.013-0.023
			c0.354-0.084,0.699-0.178,1.025-0.281c0.328-0.1,0.626-0.192,0.891-0.273c0.262-0.082,0.484-0.147,0.662-0.196
			c0.177-0.047,0.289-0.059,0.336-0.039c0.048,0.021,0.065,0.061,0.053,0.115c-0.011,0.055-0.025,0.103-0.043,0.139l0.096,0.042
			l0.652-1.31l-0.098-0.042c-0.029,0.058-0.059,0.101-0.095,0.13c-0.03,0.033-0.078,0.037-0.136,0.009l-3.05-1.351
			c-0.056-0.027-0.087-0.063-0.087-0.106c0-0.047,0.012-0.102,0.033-0.162l-0.095-0.042l-0.621,1.254l0.098,0.042
			c0.029-0.056,0.062-0.098,0.093-0.132c0.036-0.029,0.081-0.033,0.14-0.008l1.586,0.704c-0.248,0.073-0.495,0.149-0.745,0.222
			c-0.248,0.076-0.477,0.141-0.678,0.2c-0.206,0.059-0.375,0.107-0.507,0.143c-0.135,0.036-0.178,0.053-0.217,0.047
			c-0.071-0.009-0.108-0.073-0.111-0.114c0-0.04,0.003-0.08,0.013-0.115l-0.094-0.041l-0.699,1.749l0.095,0.042
			C120.281,31.213,120.314,31.171,120.345,31.141z M122.838,25.877c0.037-0.029,0.083-0.027,0.139,0.006l2.85,1.729
			c0.053,0.031,0.078,0.071,0.07,0.117c-0.009,0.049-0.031,0.108-0.068,0.18l0.093,0.054l0.817-1.338l-0.088-0.056
			c-0.048,0.064-0.091,0.111-0.128,0.141s-0.084,0.028-0.14-0.005l-2.85-1.728c-0.054-0.034-0.077-0.073-0.07-0.122
			c0.01-0.046,0.032-0.106,0.067-0.177l-0.089-0.054l-0.819,1.338l0.091,0.056C122.757,25.952,122.799,25.906,122.838,25.877z
			 M121.426,37.169c0.217-0.012,0.414-0.07,0.598-0.171c0.183-0.104,0.342-0.258,0.483-0.47c0.139-0.21,0.247-0.486,0.331-0.825
			c0.083-0.339,0.11-0.633,0.086-0.885c-0.027-0.252-0.099-0.463-0.211-0.638c-0.116-0.176-0.269-0.319-0.451-0.43
			c-0.188-0.108-0.39-0.192-0.618-0.247l-1.81-0.449c-0.062-0.015-0.096-0.048-0.104-0.095c-0.004-0.048-0.001-0.103,0.006-0.165
			l-0.1-0.025l-0.395,1.376l0.101,0.026c0.011-0.026,0.027-0.05,0.054-0.077c0.024-0.025,0.066-0.033,0.131-0.017l2.062,0.501
			c0.213,0.054,0.349,0.162,0.409,0.326c0.058,0.165,0.059,0.361,0.002,0.594c-0.058,0.229-0.148,0.406-0.277,0.524
			c-0.126,0.121-0.299,0.152-0.513,0.102l-2.063-0.507c-0.062-0.015-0.102-0.041-0.108-0.075c-0.01-0.032-0.014-0.064-0.012-0.091
			l-0.104-0.025l-0.275,1.396l0.102,0.026c0.021-0.06,0.046-0.108,0.073-0.148s0.072-0.053,0.133-0.038l1.811,0.442
			C120.992,37.159,121.21,37.18,121.426,37.169z"/>
	</g>
</g>
<g>
	<g>
		<path d="M91.039,94.885c0-3.216,0-3.794-0.041-4.454c-0.041-0.7-0.206-1.03-0.886-1.176c-0.166-0.04-0.517-0.06-0.701-0.06
			c-0.084,0-0.165-0.042-0.165-0.124c0-0.123,0.103-0.165,0.329-0.165c0.928,0,2.186,0.062,2.371,0.062s1.423-0.062,2.043-0.062
			c0.226,0,0.328,0.042,0.328,0.165c0,0.082-0.081,0.124-0.164,0.124c-0.145,0-0.269,0.02-0.516,0.06
			c-0.557,0.084-0.723,0.455-0.763,1.176c-0.041,0.66-0.041,1.238-0.041,4.454v2.887c0,2.97,0.659,4.249,1.546,5.093
			c1.011,0.947,1.938,1.137,3.113,1.137c1.258,0,2.495-0.6,3.238-1.485c0.947-1.175,1.195-2.929,1.195-5.053v-2.578
			c0-3.216,0-3.794-0.041-4.454c-0.042-0.7-0.207-1.03-0.887-1.176c-0.165-0.04-0.516-0.06-0.701-0.06
			c-0.083,0-0.164-0.042-0.164-0.124c0-0.123,0.103-0.165,0.329-0.165c0.928,0,2.062,0.062,2.186,0.062
			c0.145,0,1.113-0.062,1.732-0.062c0.227,0,0.329,0.042,0.329,0.165c0,0.082-0.081,0.124-0.165,0.124
			c-0.144,0-0.269,0.02-0.516,0.06c-0.556,0.125-0.722,0.455-0.763,1.176c-0.04,0.66-0.04,1.238-0.04,4.454v2.208
			c0,2.227-0.248,4.7-1.898,6.164c-1.484,1.318-3.03,1.525-4.247,1.525c-0.701,0-2.784-0.082-4.247-1.464
			c-1.012-0.968-1.795-2.412-1.795-5.423V94.885z"/>
		<path d="M108.359,102.103c0.041,1.443,0.206,1.876,0.702,2.001c0.329,0.082,0.741,0.102,0.906,0.102
			c0.083,0,0.145,0.062,0.145,0.144c0,0.104-0.123,0.146-0.33,0.146c-1.03,0-1.753-0.064-1.918-0.064
			c-0.164,0-0.928,0.064-1.752,0.064c-0.186,0-0.288-0.022-0.288-0.146c0-0.081,0.062-0.144,0.144-0.144
			c0.145,0,0.474-0.02,0.742-0.102c0.455-0.125,0.515-0.599,0.515-2.187V91.875c0-0.701,0.104-0.887,0.248-0.887
			c0.207,0,0.517,0.352,0.701,0.536c0.289,0.288,2.929,3.092,5.733,5.979c1.793,1.858,3.73,3.94,4.288,4.518l-0.186-8.785
			c-0.021-1.133-0.124-1.524-0.682-1.627c-0.328-0.064-0.741-0.084-0.886-0.084c-0.123,0-0.145-0.105-0.145-0.165
			c0-0.102,0.145-0.124,0.351-0.124c0.825,0,1.692,0.042,1.896,0.042c0.207,0,0.805-0.042,1.548-0.042
			c0.187,0,0.329,0.022,0.329,0.124c0,0.06-0.082,0.165-0.205,0.165c-0.083,0-0.229,0-0.433,0.042
			c-0.599,0.122-0.641,0.472-0.641,1.524l-0.041,10.268c0,1.156-0.021,1.26-0.145,1.26c-0.187,0-0.371-0.146-1.381-1.072
			c-0.187-0.165-2.805-2.742-4.722-4.742c-2.104-2.206-4.146-4.352-4.702-4.969L108.359,102.103z"/>
		<path d="M126.298,99.402c0,1.689,0,3.071,0.083,3.793c0.062,0.515,0.124,0.845,0.66,0.928c0.269,0.042,0.66,0.082,0.824,0.082
			c0.104,0,0.145,0.084,0.145,0.144c0,0.082-0.082,0.146-0.288,0.146c-1.011,0-2.186-0.064-2.269-0.064
			c-0.104,0-1.237,0.064-1.793,0.064c-0.187,0-0.291-0.042-0.291-0.146c0-0.06,0.042-0.144,0.146-0.144
			c0.165,0,0.393-0.04,0.558-0.082c0.35-0.083,0.411-0.413,0.474-0.928c0.082-0.722,0.103-2.104,0.103-3.793v-3.095
			c0-2.722,0-3.217-0.04-3.774c-0.041-0.597-0.187-0.864-0.577-0.947c-0.207-0.042-0.434-0.062-0.558-0.062
			c-0.082,0-0.144-0.083-0.144-0.143c0-0.104,0.081-0.146,0.288-0.146c0.598,0,1.731,0.042,1.835,0.042
			c0.083,0,1.258-0.042,1.814-0.042c0.207,0,0.289,0.042,0.289,0.146c0,0.06-0.082,0.143-0.145,0.143c-0.124,0-0.247,0-0.454,0.042
			c-0.494,0.103-0.598,0.349-0.638,0.967c-0.022,0.558-0.022,1.053-0.022,3.774V99.402z"/>
		<path d="M137.331,102.204c1.052-2.348,3.423-8.329,3.814-9.587c0.082-0.268,0.164-0.515,0.164-0.661
			c0-0.144-0.062-0.308-0.247-0.37c-0.206-0.062-0.412-0.062-0.618-0.062c-0.104,0-0.207-0.063-0.207-0.143
			c0-0.104,0.125-0.146,0.413-0.146c0.722,0,1.547,0.042,1.772,0.042c0.104,0,0.889-0.042,1.424-0.042
			c0.186,0,0.288,0.042,0.288,0.124s-0.062,0.165-0.206,0.165c-0.124,0-0.536,0-0.865,0.206c-0.247,0.166-0.537,0.413-1.011,1.609
			c-0.206,0.495-1.093,2.598-2.021,4.742c-1.112,2.557-1.917,4.454-2.329,5.319c-0.495,1.052-0.598,1.321-0.784,1.321
			c-0.206,0-0.33-0.228-0.68-1.072l-4.455-10.745c-0.412-0.99-0.659-1.175-1.258-1.319c-0.287-0.062-0.597-0.062-0.701-0.062
			c-0.104,0-0.143-0.105-0.143-0.165c0-0.102,0.185-0.124,0.474-0.124c0.866,0,1.896,0.042,2.123,0.042
			c0.186,0,0.99-0.042,1.691-0.042c0.33,0,0.494,0.042,0.494,0.124s-0.062,0.165-0.185,0.165c-0.206,0-0.495,0.02-0.66,0.084
			c-0.186,0.08-0.207,0.185-0.207,0.307c0,0.229,0.228,0.764,0.495,1.465L137.331,102.204z"/>
		<path d="M147.269,96.308c0-2.722,0-3.217-0.042-3.774c-0.04-0.597-0.145-0.885-0.742-0.967c-0.144-0.022-0.453-0.042-0.618-0.042
			c-0.062,0-0.145-0.083-0.145-0.143c0-0.104,0.082-0.146,0.288-0.146c0.826,0,2.001,0.042,2.103,0.042c0.125,0,3.919,0.021,4.332,0
			c0.35-0.02,0.68-0.084,0.825-0.104c0.081-0.021,0.164-0.083,0.247-0.083c0.062,0,0.082,0.083,0.082,0.167
			c0,0.124-0.102,0.328-0.144,0.823c-0.021,0.165-0.062,0.948-0.104,1.154c-0.02,0.084-0.081,0.187-0.164,0.187
			c-0.104,0-0.146-0.082-0.146-0.228c0-0.124-0.02-0.411-0.102-0.619c-0.125-0.287-0.311-0.412-1.3-0.537
			c-0.309-0.04-2.413-0.06-2.618-0.06c-0.083,0-0.104,0.06-0.104,0.185v4.764c0,0.124,0,0.186,0.104,0.186
			c0.227,0,2.618,0,3.031-0.041c0.434-0.042,0.699-0.062,0.887-0.248c0.123-0.122,0.206-0.226,0.268-0.226
			c0.062,0,0.102,0.041,0.102,0.144c0,0.104-0.102,0.392-0.144,0.971c-0.041,0.35-0.082,1.008-0.082,1.132
			c0,0.144-0.042,0.33-0.165,0.33c-0.082,0-0.124-0.062-0.124-0.164c0-0.166,0-0.351-0.082-0.577
			c-0.062-0.247-0.226-0.456-0.928-0.537c-0.495-0.062-2.433-0.082-2.742-0.082c-0.104,0-0.125,0.062-0.125,0.124v1.465
			c0,0.598-0.019,2.639,0,2.988c0.042,1.177,0.372,1.403,2.166,1.403c0.475,0,1.341,0,1.814-0.186
			c0.475-0.207,0.722-0.518,0.825-1.218c0.042-0.206,0.082-0.269,0.186-0.269c0.102,0,0.124,0.145,0.124,0.269
			c0,0.125-0.146,1.319-0.248,1.69c-0.124,0.455-0.31,0.455-1.011,0.455c-1.361,0-2.413-0.041-3.153-0.063
			c-0.764-0.042-1.239-0.042-1.508-0.042c-0.039,0-0.391,0-0.782,0.022c-0.351,0.02-0.763,0.042-1.052,0.042
			c-0.185,0-0.289-0.042-0.289-0.146c0-0.06,0.042-0.144,0.146-0.144c0.164,0,0.392-0.062,0.557-0.082
			c0.35-0.062,0.391-0.413,0.474-0.928c0.104-0.722,0.104-2.104,0.104-3.793V96.308z"/>
		<path d="M157.929,96.308c0-2.722,0-3.217-0.041-3.774c-0.04-0.597-0.145-0.885-0.741-0.967c-0.146-0.022-0.454-0.042-0.62-0.042
			c-0.062,0-0.144-0.083-0.144-0.143c0-0.104,0.081-0.146,0.288-0.146c0.825,0,2.042,0.042,2.146,0.042
			c0.186,0,1.711-0.042,2.267-0.042c1.156,0,2.434,0.104,3.383,0.763c0.453,0.332,1.258,1.176,1.258,2.393
			c0,1.298-0.537,2.557-2.227,4c1.483,1.855,2.741,3.443,3.794,4.538c0.969,0.987,1.567,1.152,2.021,1.215
			c0.35,0.062,0.535,0.062,0.64,0.062c0.102,0,0.164,0.084,0.164,0.144c0,0.104-0.103,0.146-0.432,0.146h-1.135
			c-1.031,0-1.485-0.104-1.938-0.352c-0.785-0.411-1.445-1.257-2.476-2.576c-0.763-0.948-1.567-2.085-1.959-2.558
			c-0.082-0.082-0.122-0.103-0.247-0.103l-2.309-0.042c-0.084,0-0.124,0.042-0.124,0.145v0.413c0,1.689,0,3.051,0.082,3.772
			c0.061,0.515,0.166,0.845,0.721,0.928c0.248,0.042,0.641,0.082,0.805,0.082c0.124,0,0.146,0.084,0.146,0.144
			c0,0.082-0.083,0.146-0.289,0.146c-0.99,0-2.145-0.064-2.229-0.064c-0.02,0-1.236,0.064-1.793,0.064
			c-0.186,0-0.289-0.042-0.289-0.146c0-0.06,0.042-0.144,0.146-0.144c0.163,0,0.392-0.04,0.557-0.082
			c0.35-0.083,0.391-0.413,0.474-0.928c0.103-0.722,0.103-2.104,0.103-3.793V96.308z M159.497,97.793
			c0,0.103,0.04,0.164,0.124,0.226c0.267,0.146,1.194,0.27,1.999,0.27c0.435,0,0.928-0.021,1.359-0.312
			c0.62-0.41,1.095-1.338,1.095-2.68c0-2.185-1.196-3.442-3.134-3.442c-0.536,0-1.114,0.061-1.301,0.102
			c-0.08,0.042-0.143,0.104-0.143,0.207V97.793z"/>
		<path d="M170.775,104.247c-0.247-0.124-0.27-0.186-0.27-0.661c0-0.866,0.084-1.565,0.104-1.854c0-0.186,0.041-0.288,0.146-0.288
			c0.102,0,0.163,0.061,0.163,0.204c0,0.146,0,0.394,0.062,0.641c0.287,1.279,1.649,1.732,2.866,1.732
			c1.792,0,2.722-1.011,2.722-2.331c0-1.258-0.682-1.855-2.289-3.051l-0.825-0.62c-1.959-1.463-2.598-2.534-2.598-3.752
			c0-2.062,1.629-3.3,4.021-3.3c0.722,0,1.443,0.104,1.876,0.207c0.351,0.084,0.495,0.084,0.641,0.084
			c0.143,0,0.185,0.02,0.185,0.124c0,0.079-0.082,0.656-0.082,1.854c0,0.269-0.02,0.391-0.145,0.391
			c-0.123,0-0.144-0.08-0.165-0.226c-0.021-0.206-0.164-0.68-0.268-0.867c-0.124-0.203-0.723-0.864-2.351-0.864
			c-1.319,0-2.412,0.661-2.412,1.897c0,1.112,0.556,1.752,2.351,2.969l0.516,0.35c2.206,1.506,2.969,2.722,2.969,4.228
			c0,1.03-0.393,2.145-1.69,2.991c-0.764,0.494-1.896,0.619-2.888,0.619C172.568,104.723,171.517,104.598,170.775,104.247z"/>
		<path d="M183.785,99.402c0,1.689,0,3.071,0.084,3.793c0.062,0.515,0.124,0.845,0.659,0.928c0.27,0.042,0.66,0.082,0.824,0.082
			c0.104,0,0.145,0.084,0.145,0.144c0,0.082-0.082,0.146-0.288,0.146c-1.011,0-2.186-0.064-2.269-0.064
			c-0.103,0-1.236,0.064-1.793,0.064c-0.186,0-0.29-0.042-0.29-0.146c0-0.06,0.042-0.144,0.145-0.144
			c0.165,0,0.393-0.04,0.557-0.082c0.351-0.083,0.412-0.413,0.476-0.928c0.082-0.722,0.102-2.104,0.102-3.793v-3.095
			c0-2.722,0-3.217-0.04-3.774c-0.042-0.597-0.187-0.864-0.577-0.947c-0.207-0.042-0.434-0.062-0.557-0.062
			c-0.083,0-0.146-0.083-0.146-0.143c0-0.104,0.083-0.146,0.289-0.146c0.599,0,1.732,0.042,1.835,0.042
			c0.083,0,1.258-0.042,1.815-0.042c0.205,0,0.289,0.042,0.289,0.146c0,0.06-0.084,0.143-0.146,0.143c-0.124,0-0.248,0-0.453,0.042
			c-0.495,0.103-0.6,0.349-0.639,0.967c-0.022,0.558-0.022,1.053-0.022,3.774V99.402z"/>
		<path d="M194.261,99.402c0,1.689,0,3.071,0.083,3.793c0.062,0.515,0.145,0.845,0.702,0.928c0.245,0.042,0.658,0.082,0.824,0.082
			c0.124,0,0.143,0.084,0.143,0.144c0,0.082-0.081,0.146-0.287,0.146c-0.989,0-2.146-0.064-2.248-0.064
			c-0.081,0-1.341,0.064-1.877,0.064c-0.205,0-0.287-0.042-0.287-0.146c0-0.06,0.04-0.121,0.143-0.121
			c0.167,0,0.372-0.042,0.537-0.084c0.37-0.082,0.475-0.434,0.536-0.948c0.082-0.722,0.082-2.104,0.082-3.793v-7.364l-2.619,0.043
			c-1.133,0.021-1.566,0.146-1.834,0.556c-0.207,0.311-0.228,0.434-0.289,0.558c-0.042,0.146-0.104,0.164-0.187,0.164
			c-0.04,0-0.121-0.039-0.121-0.143c0-0.187,0.369-1.755,0.39-1.898c0.041-0.102,0.123-0.329,0.187-0.329
			c0.122,0,0.31,0.145,0.804,0.205c0.515,0.064,1.217,0.084,1.423,0.084h6.846c0.598,0,1.011-0.042,1.298-0.084
			c0.27-0.04,0.434-0.08,0.517-0.08s0.083,0.103,0.083,0.204c0,0.537-0.062,1.795-0.062,2.002c0,0.143-0.082,0.227-0.165,0.227
			c-0.082,0-0.124-0.063-0.144-0.311l-0.021-0.185c-0.061-0.537-0.454-0.928-2.185-0.97l-2.27-0.043V99.402z"/>
		<path d="M206.468,99.936c0-0.948-0.124-1.297-0.392-1.792c-0.144-0.269-2.598-4.166-3.217-5.093
			c-0.433-0.661-0.866-1.053-1.194-1.278c-0.269-0.164-0.619-0.248-0.764-0.248c-0.103,0-0.187-0.083-0.187-0.165
			s0.062-0.124,0.228-0.124c0.352,0,1.711,0.042,1.794,0.042c0.123,0,0.867-0.042,1.566-0.042c0.208,0,0.248,0.042,0.248,0.124
			c0,0.06-0.124,0.124-0.288,0.185c-0.146,0.064-0.229,0.145-0.229,0.291c0,0.246,0.125,0.453,0.249,0.679l3.299,5.463
			c0.371-0.74,2.64-4.494,2.969-5.071c0.228-0.392,0.31-0.679,0.31-0.907c0-0.247-0.082-0.39-0.288-0.454
			c-0.165-0.041-0.269-0.125-0.269-0.204c0-0.062,0.104-0.104,0.289-0.104c0.474,0,1.112,0.042,1.259,0.042
			c0.122,0,1.422-0.042,1.772-0.042c0.124,0,0.226,0.042,0.226,0.104c0,0.079-0.082,0.185-0.226,0.185
			c-0.207,0-0.557,0.062-0.846,0.227c-0.352,0.205-0.516,0.393-0.907,0.866c-0.599,0.702-3.156,4.824-3.526,5.568
			c-0.31,0.618-0.227,1.176-0.227,1.75v1.508c0,0.288,0,1.03,0.061,1.752c0.042,0.515,0.166,0.845,0.703,0.928
			c0.247,0.042,0.659,0.082,0.823,0.082c0.104,0,0.146,0.084,0.146,0.144c0,0.082-0.104,0.146-0.289,0.146
			c-1.012,0-2.186-0.064-2.289-0.064c-0.082,0-1.236,0.064-1.773,0.064c-0.206,0-0.288-0.042-0.288-0.146
			c0-0.06,0.041-0.144,0.145-0.144c0.164,0,0.371-0.04,0.535-0.082c0.372-0.083,0.495-0.413,0.537-0.928
			c0.04-0.722,0.04-1.464,0.04-1.752V99.936z"/>
		<path d="M95.718,121.448c0-3.814,2.516-6.433,5.464-6.433c2.805,0,4.372,1.649,4.372,4.246c0,3.013-2.145,6.271-5.753,6.208
			C97.161,125.492,95.718,123.676,95.718,121.448z M97.368,121.779c0,1.752,0.762,3.094,2.659,3.071c2.764,0,3.876-3.96,3.876-6.146
			c0-1.586-0.824-3.069-2.597-3.069C98.439,115.635,97.368,119.489,97.368,121.779z"/>
		<path d="M114.049,115.691l-0.123,0.722h-2.62l-0.906,4.969c-0.269,1.485-0.619,2.764-1.259,4.145
			c-1.011,2.206-2.247,3.773-2.37,3.794c-0.537-0.309-0.517-0.392-0.248-0.742c1.217-1.319,1.753-3.031,2.041-4.764l1.278-7.401
			h-2.062l0.123-0.722h2.062c0.701-4.125,2.743-6.64,4.104-6.64c0.392,0,0.742,0.309,0.722,0.905
			c-0.021,0.784-0.413,1.217-0.661,1.217c-0.392,0-0.122-0.659-0.845-0.659c-1.217,0-1.36,2.27-1.855,5.177H114.049z"/>
		<path d="M137.474,119.134c0,1.979,0,3.608,0.103,4.475c0.062,0.6,0.186,1.053,0.805,1.135c0.288,0.04,0.741,0.082,0.927,0.082
			c0.124,0,0.166,0.062,0.166,0.123c0,0.104-0.104,0.166-0.33,0.166c-1.135,0-2.434-0.062-2.537-0.062
			c-0.102,0-1.402,0.062-2.021,0.062c-0.228,0-0.329-0.041-0.329-0.166c0-0.062,0.041-0.123,0.164-0.123
			c0.187,0,0.434-0.042,0.619-0.082c0.412-0.082,0.516-0.535,0.598-1.135c0.103-0.866,0.103-2.496,0.103-4.475v-2.166
			c0-0.081-0.062-0.122-0.123-0.122h-8.743c-0.062,0-0.123,0.02-0.123,0.122v2.166c0,1.979,0,3.608,0.103,4.475
			c0.062,0.6,0.186,1.053,0.805,1.135c0.288,0.04,0.742,0.082,0.927,0.082c0.125,0,0.166,0.062,0.166,0.123
			c0,0.104-0.104,0.166-0.33,0.166c-1.135,0-2.433-0.062-2.537-0.062c-0.102,0-1.402,0.062-2.02,0.062
			c-0.229,0-0.33-0.041-0.33-0.166c0-0.062,0.041-0.123,0.164-0.123c0.187,0,0.434-0.042,0.619-0.082
			c0.412-0.082,0.516-0.535,0.598-1.135c0.104-0.866,0.104-2.496,0.104-4.475v-3.628c0-3.218,0-3.794-0.041-4.454
			c-0.042-0.702-0.206-1.031-0.887-1.176c-0.165-0.042-0.516-0.062-0.701-0.062c-0.082,0-0.165-0.042-0.165-0.124
			c0-0.124,0.103-0.163,0.33-0.166c0.927,0,2.228,0.062,2.329,0.062c0.104,0,1.402-0.062,2.021-0.06
			c0.227,0,0.331,0.039,0.331,0.163c0,0.082-0.084,0.124-0.167,0.124c-0.144,0-0.267,0.02-0.515,0.062
			c-0.557,0.104-0.722,0.454-0.764,1.176c-0.04,0.66-0.04,1.236-0.04,4.454v0.433c0,0.103,0.062,0.124,0.123,0.124h8.743
			c0.062,0,0.123-0.021,0.123-0.124v-0.433c0-3.218,0-3.794-0.04-4.454c-0.042-0.702-0.207-1.031-0.888-1.176
			c-0.165-0.042-0.515-0.062-0.7-0.062c-0.083,0-0.165-0.042-0.165-0.124c0-0.124,0.104-0.163,0.33-0.166
			c0.927,0,2.228,0.062,2.329,0.062c0.104,0,1.402-0.062,2.021-0.06c0.227,0,0.329,0.039,0.329,0.163
			c0,0.082-0.081,0.124-0.165,0.124c-0.144,0-0.269,0.02-0.516,0.062c-0.556,0.104-0.722,0.454-0.763,1.176
			c-0.04,0.66-0.04,1.236-0.04,4.454V119.134z"/>
		<path d="M147.329,112.207c0.226-0.578,0.31-0.682,0.433-0.682c0.187,0,0.248,0.248,0.433,0.64c0.33,0.742,3.237,7.98,4.351,10.639
			c0.66,1.567,1.155,1.796,1.547,1.917c0.268,0.084,0.536,0.104,0.721,0.104c0.104,0,0.228,0.042,0.228,0.145
			c0,0.104-0.206,0.145-0.412,0.145c-0.269,0-1.609,0-2.866-0.041c-0.351-0.021-0.64-0.021-0.64-0.125
			c0-0.081,0.042-0.081,0.124-0.123c0.104-0.042,0.29-0.184,0.165-0.474l-1.628-4.02c-0.042-0.084-0.062-0.104-0.165-0.104h-4.187
			c-0.083,0-0.144,0.041-0.186,0.145l-1.031,2.804c-0.165,0.433-0.268,0.866-0.268,1.176c0,0.352,0.309,0.474,0.617,0.474h0.167
			c0.144,0,0.186,0.062,0.186,0.145c0,0.104-0.104,0.145-0.269,0.145c-0.434,0-1.424-0.062-1.629-0.062
			c-0.187,0-1.093,0.062-1.836,0.062c-0.227,0-0.35-0.041-0.35-0.145c0-0.083,0.081-0.145,0.164-0.145
			c0.124,0,0.393-0.021,0.536-0.042c0.825-0.103,1.176-0.721,1.525-1.607L147.329,112.207z M149.35,119.505
			c0.082,0,0.082-0.042,0.062-0.123l-1.794-4.805c-0.103-0.268-0.205-0.268-0.31,0l-1.69,4.805c-0.021,0.081,0,0.123,0.062,0.123
			H149.35z"/>
		<path d="M168.382,122.517h0.081c0.455-1.446,2.083-6.516,2.723-8.764c0.187-0.66,0.206-0.867,0.206-1.094
			c0-0.309-0.143-0.516-0.97-0.516c-0.103,0-0.163-0.103-0.163-0.164c0-0.082,0.083-0.124,0.31-0.124c0.928,0,1.688,0.04,1.854,0.04
			c0.124,0,0.907-0.04,1.464-0.04c0.165,0,0.248,0.042,0.248,0.102c0,0.084-0.041,0.187-0.166,0.187
			c-0.06,0-0.411,0.021-0.617,0.083c-0.537,0.186-0.824,0.886-1.176,1.855c-0.804,2.227-2.599,7.796-3.319,9.752
			c-0.475,1.302-0.579,1.506-0.784,1.506c-0.187,0-0.35-0.226-0.598-0.906l-3.546-9.588c-0.62,1.525-3.073,7.938-3.734,9.567
			c-0.308,0.743-0.432,0.927-0.638,0.927c-0.188,0-0.331-0.184-0.7-1.381l-3.219-10.393c-0.288-0.928-0.474-1.154-0.948-1.317
			c-0.247-0.084-0.699-0.105-0.824-0.105c-0.083,0-0.165-0.062-0.165-0.164c0-0.082,0.123-0.124,0.29-0.124
			c0.947,0,1.957,0.04,2.143,0.04c0.166,0,0.99-0.04,1.896-0.04c0.248,0,0.332,0.042,0.332,0.124c0,0.103-0.104,0.164-0.186,0.164
			c-0.146,0-0.434,0-0.642,0.105c-0.122,0.039-0.246,0.142-0.246,0.37c0,0.227,0.145,0.846,0.352,1.629
			c0.287,1.112,2.144,7.547,2.371,8.269h0.041l3.793-9.795c0.269-0.702,0.392-0.805,0.495-0.805c0.124,0,0.269,0.227,0.495,0.826
			L168.382,122.517z"/>
		<path d="M179.145,112.207c0.227-0.578,0.31-0.682,0.434-0.682c0.186,0,0.247,0.248,0.432,0.64
			c0.331,0.742,3.237,7.98,4.352,10.639c0.66,1.567,1.155,1.796,1.547,1.917c0.268,0.084,0.536,0.104,0.721,0.104
			c0.104,0,0.228,0.042,0.228,0.145c0,0.104-0.207,0.145-0.412,0.145c-0.269,0-1.609,0-2.867-0.041
			c-0.35-0.021-0.64-0.021-0.64-0.125c0-0.081,0.042-0.081,0.125-0.123c0.103-0.042,0.289-0.184,0.165-0.474l-1.629-4.02
			c-0.042-0.084-0.062-0.104-0.166-0.104h-4.186c-0.083,0-0.144,0.041-0.186,0.145l-1.03,2.804
			c-0.166,0.433-0.268,0.866-0.268,1.176c0,0.352,0.308,0.474,0.617,0.474h0.166c0.144,0,0.186,0.062,0.186,0.145
			c0,0.104-0.104,0.145-0.269,0.145c-0.433,0-1.423-0.062-1.629-0.062c-0.186,0-1.093,0.062-1.836,0.062
			c-0.227,0-0.35-0.041-0.35-0.145c0-0.083,0.081-0.145,0.165-0.145c0.123,0,0.392-0.021,0.535-0.042
			c0.827-0.103,1.176-0.721,1.525-1.607L179.145,112.207z M181.165,119.505c0.082,0,0.082-0.042,0.062-0.123l-1.795-4.805
			c-0.103-0.268-0.205-0.268-0.31,0l-1.689,4.805c-0.022,0.081,0,0.123,0.062,0.123H181.165z"/>
		<path d="M191.495,120.021c0,1.691,0,3.073,0.083,3.794c0.061,0.516,0.123,0.847,0.66,0.929c0.268,0.04,0.658,0.082,0.824,0.082
			c0.103,0,0.144,0.081,0.144,0.145c0,0.082-0.083,0.145-0.288,0.145c-1.012,0-2.186-0.062-2.269-0.062
			c-0.103,0-1.236,0.062-1.793,0.062c-0.185,0-0.29-0.041-0.29-0.145c0-0.063,0.042-0.145,0.146-0.145
			c0.164,0,0.392-0.042,0.557-0.082c0.351-0.082,0.412-0.413,0.474-0.929c0.084-0.721,0.104-2.103,0.104-3.794v-3.092
			c0-2.722,0-3.218-0.042-3.774c-0.04-0.599-0.185-0.866-0.575-0.947c-0.208-0.042-0.435-0.063-0.557-0.063
			c-0.084,0-0.146-0.082-0.146-0.145c0-0.102,0.083-0.144,0.289-0.144c0.599,0,1.732,0.04,1.835,0.04c0.083,0,1.257-0.04,1.814-0.04
			c0.206,0,0.289,0.042,0.289,0.144c0,0.062-0.083,0.145-0.144,0.145c-0.124,0-0.249,0-0.455,0.042
			c-0.493,0.103-0.598,0.351-0.639,0.969c-0.021,0.557-0.021,1.053-0.021,3.774V120.021z"/>
		<path d="M197.949,112.806c0.165,0.184,0.186,0.245,0.186,0.349c0,0.062-0.103,0.125-0.186,0.125c-0.33,0-1.114-0.248-1.444-0.372
			c-0.245-0.123-0.35-0.227-0.35-0.537c0-1.464,1.052-3.196,1.773-4.061c0.082-0.125,0.165-0.166,0.268-0.166
			c0.041,0,0.104,0.041,0.104,0.104s-0.021,0.125-0.082,0.268c-0.309,0.659-0.682,1.773-0.682,2.949
			C197.536,112.102,197.805,112.639,197.949,112.806z"/>
		<path d="M204.65,120.021c0,1.691,0,3.073,0.084,3.794c0.061,0.516,0.124,0.847,0.659,0.929c0.269,0.04,0.659,0.082,0.824,0.082
			c0.104,0,0.145,0.081,0.145,0.145c0,0.082-0.082,0.145-0.288,0.145c-1.012,0-2.187-0.062-2.269-0.062
			c-0.103,0-1.236,0.062-1.793,0.062c-0.186,0-0.29-0.041-0.29-0.145c0-0.063,0.042-0.145,0.145-0.145
			c0.165,0,0.393-0.042,0.557-0.082c0.352-0.082,0.413-0.413,0.475-0.929c0.083-0.721,0.103-2.103,0.103-3.794v-3.092
			c0-2.722,0-3.218-0.04-3.774c-0.042-0.599-0.186-0.866-0.577-0.947c-0.207-0.042-0.434-0.063-0.557-0.063
			c-0.083,0-0.146-0.082-0.146-0.145c0-0.102,0.084-0.144,0.29-0.144c0.599,0,1.732,0.04,1.835,0.04c0.082,0,1.257-0.04,1.814-0.04
			c0.206,0,0.289,0.042,0.289,0.144c0,0.062-0.083,0.145-0.145,0.145c-0.124,0-0.248,0-0.454,0.042
			c-0.493,0.103-0.598,0.351-0.638,0.969c-0.022,0.557-0.022,1.053-0.022,3.774V120.021z"/>
		<path d="M102.308,139.905c-0.181-0.558-0.346-0.919-0.556-1.068c-0.166-0.104-0.466-0.135-0.603-0.135
			c-0.149,0-0.239-0.013-0.239-0.135c0-0.105,0.12-0.136,0.33-0.136c0.782,0,1.608,0.046,1.743,0.046
			c0.137,0,0.798-0.046,1.67-0.046c0.21,0,0.316,0.046,0.316,0.136c0,0.122-0.12,0.135-0.271,0.135c-0.121,0-0.271,0-0.376,0.059
			c-0.137,0.062-0.165,0.168-0.165,0.333c0,0.195,0.149,0.707,0.33,1.383c0.256,0.992,1.654,5.549,1.925,6.39h0.044l2.918-7.834
			c0.149-0.419,0.256-0.541,0.375-0.541c0.166,0,0.241,0.226,0.436,0.707l3.128,7.563h0.046c0.271-1.008,1.474-4.977,1.999-6.736
			c0.105-0.346,0.15-0.661,0.15-0.873c0-0.239-0.135-0.45-0.722-0.45c-0.149,0-0.256-0.045-0.256-0.135
			c0-0.105,0.121-0.136,0.347-0.136c0.797,0,1.429,0.046,1.563,0.046c0.104,0,0.752-0.046,1.248-0.046
			c0.165,0,0.271,0.03,0.271,0.121c0,0.104-0.076,0.149-0.211,0.149c-0.15,0-0.36,0.015-0.526,0.077
			c-0.361,0.134-0.525,0.734-0.841,1.592c-0.692,1.895-2.271,6.677-3.009,8.932c-0.164,0.526-0.239,0.707-0.435,0.707
			c-0.151,0-0.241-0.181-0.467-0.737l-3.128-7.532h-0.028c-0.287,0.766-2.285,6.089-2.934,7.472c-0.285,0.617-0.36,0.798-0.54,0.798
			c-0.15,0-0.212-0.166-0.347-0.557L102.308,139.905z"/>
		<path d="M120.244,143.83c0-1.94,0-2.302-0.015-2.707c-0.03-0.437-0.149-0.572-0.571-0.69c-0.105-0.032-0.331-0.046-0.525-0.046
			c-0.137,0-0.227-0.045-0.227-0.136c0-0.09,0.105-0.119,0.301-0.119c0.691,0,1.533,0.029,1.91,0.029c0.42,0,3.353,0.014,3.607,0
			c0.241-0.016,0.452-0.062,0.558-0.076c0.075-0.014,0.149-0.06,0.211-0.06c0.074,0,0.089,0.06,0.089,0.12
			c0,0.09-0.075,0.241-0.105,0.828c-0.016,0.135-0.045,0.69-0.074,0.841c-0.017,0.061-0.045,0.211-0.151,0.211
			c-0.09,0-0.105-0.061-0.105-0.165c0-0.091-0.014-0.315-0.089-0.468c-0.105-0.226-0.211-0.404-0.873-0.465
			c-0.226-0.03-1.804-0.062-2.075-0.062c-0.06,0-0.09,0.046-0.09,0.122v3.157c0,0.075,0.015,0.136,0.09,0.136
			c0.302,0,2.016,0,2.316-0.031c0.315-0.029,0.511-0.06,0.632-0.194c0.104-0.09,0.149-0.165,0.21-0.165
			c0.06,0,0.104,0.059,0.104,0.134c0,0.076-0.029,0.286-0.104,0.933c-0.03,0.256-0.061,0.767-0.061,0.856
			c0,0.104-0.015,0.286-0.136,0.286c-0.09,0-0.119-0.044-0.119-0.105c-0.016-0.135-0.016-0.3-0.045-0.466
			c-0.076-0.256-0.241-0.449-0.738-0.495c-0.239-0.031-1.744-0.062-2.073-0.062c-0.062,0-0.076,0.062-0.076,0.137v1.021
			c0,0.438-0.015,1.521,0,1.895c0.03,0.873,0.437,1.069,1.789,1.069c0.347,0,0.902-0.016,1.249-0.166
			c0.329-0.151,0.48-0.421,0.571-0.948c0.029-0.136,0.059-0.195,0.15-0.195c0.104,0,0.119,0.166,0.119,0.303
			c0,0.284-0.105,1.156-0.179,1.41c-0.091,0.333-0.212,0.333-0.708,0.333c-0.992,0-1.789-0.016-2.437-0.046
			c-0.646-0.015-1.142-0.029-1.533-0.029c-0.149,0-0.437,0.015-0.752,0.015c-0.315,0.015-0.646,0.029-0.917,0.029
			c-0.165,0-0.255-0.044-0.255-0.135c0-0.06,0.045-0.135,0.21-0.135c0.195,0,0.347-0.017,0.466-0.046
			c0.271-0.061,0.347-0.3,0.392-0.676c0.06-0.542,0.06-1.55,0.06-2.721V143.83z"/>
		<path d="M128.378,149.633c-0.21-0.09-0.255-0.15-0.255-0.437c0-0.69,0.06-1.488,0.073-1.697c0-0.196,0.062-0.332,0.166-0.332
			c0.121,0,0.136,0.121,0.136,0.212c0,0.164,0.046,0.436,0.121,0.661c0.285,0.946,1.277,1.263,2.104,1.263
			c1.143,0,1.835-0.723,1.835-1.624c0-0.557-0.136-1.112-1.31-1.805l-0.767-0.45c-1.564-0.918-2.074-1.774-2.074-2.903
			c0-1.564,1.504-2.571,3.338-2.571c0.857,0,1.533,0.122,1.878,0.212c0.121,0.029,0.183,0.074,0.183,0.164
			c0,0.167-0.045,0.526-0.045,1.535c0,0.27-0.062,0.405-0.167,0.405c-0.09,0-0.135-0.075-0.135-0.226
			c0-0.12-0.062-0.512-0.347-0.841c-0.194-0.243-0.615-0.604-1.474-0.604c-0.946,0-1.804,0.498-1.804,1.369
			c0,0.572,0.212,1.023,1.398,1.685l0.542,0.3c1.743,0.962,2.284,1.939,2.284,3.099c0,0.946-0.36,1.714-1.322,2.39
			c-0.632,0.451-1.504,0.528-2.211,0.528C129.761,149.966,128.949,149.889,128.378,149.633z"/>
		<path d="M139.521,140.912l-1.97,0.044c-0.768,0.018-1.084,0.107-1.279,0.393c-0.135,0.18-0.194,0.346-0.225,0.437
			c-0.031,0.104-0.061,0.165-0.15,0.165c-0.091,0-0.121-0.075-0.121-0.21c0-0.212,0.256-1.443,0.286-1.55
			c0.029-0.165,0.075-0.241,0.15-0.241c0.104,0,0.24,0.106,0.571,0.15c0.391,0.046,0.887,0.062,1.322,0.062h5.368
			c0.421,0,0.707-0.029,0.902-0.062c0.21-0.028,0.315-0.059,0.36-0.059c0.09,0,0.106,0.076,0.106,0.27
			c0,0.271-0.031,1.218-0.031,1.55c-0.014,0.136-0.045,0.209-0.12,0.209c-0.105,0-0.135-0.059-0.15-0.255l-0.014-0.135
			c-0.031-0.331-0.377-0.724-1.564-0.738l-1.67-0.029v5.174c0,1.171,0.016,2.179,0.076,2.735c0.045,0.361,0.12,0.601,0.511,0.661
			c0.181,0.029,0.481,0.046,0.678,0.046c0.149,0,0.21,0.075,0.21,0.135c0,0.091-0.105,0.135-0.257,0.135
			c-0.871,0-1.759-0.044-2.134-0.044c-0.301,0-1.203,0.044-1.729,0.044c-0.166,0-0.257-0.044-0.257-0.135
			c0-0.06,0.046-0.135,0.212-0.135c0.196,0,0.36-0.017,0.467-0.046c0.27-0.061,0.345-0.3,0.39-0.676
			c0.062-0.542,0.062-1.55,0.062-2.721V140.912z"/>
		<path d="M151.953,144.114c0-2.569,1.699-5.895,6.21-5.895c3.744,0,6.075,2.181,6.075,5.625c0,3.443-2.406,6.165-6.225,6.165
			C153.697,150.01,151.953,146.776,151.953,144.114z M162.133,144.4c0-3.369-1.938-5.459-4.405-5.459
			c-1.729,0-3.698,0.964-3.698,4.708c0,3.127,1.728,5.608,4.615,5.608C159.697,149.258,162.133,148.745,162.133,144.4z"/>
		<path d="M167.816,141.094c0.149,0.15,0.166,0.195,0.166,0.271c0,0.045-0.091,0.12-0.166,0.12c-0.302,0-0.963-0.195-1.248-0.285
			c-0.376-0.105-0.437-0.211-0.437-0.438c0-0.916,0.978-2.525,1.654-3.218c0.09-0.09,0.15-0.119,0.242-0.119
			c0.044,0,0.089,0.029,0.089,0.09c0,0.029-0.017,0.076-0.075,0.194c-0.271,0.527-0.587,1.413-0.587,2.347
			C167.455,140.551,167.681,140.956,167.816,141.094z"/>
		<path d="M170.537,146.581c-0.076,0-0.09,0.014-0.121,0.09l-0.706,1.713c-0.135,0.315-0.196,0.634-0.196,0.785
			c0,0.224,0.122,0.359,0.527,0.359h0.194c0.167,0,0.197,0.06,0.197,0.135c0,0.105-0.076,0.135-0.211,0.135
			c-0.437,0-1.053-0.044-1.475-0.044c-0.135,0-0.841,0.044-1.533,0.044c-0.164,0-0.24-0.029-0.24-0.135
			c0-0.075,0.045-0.135,0.15-0.135c0.12,0,0.271-0.017,0.391-0.017c0.602-0.09,0.827-0.479,1.098-1.128l3.457-8.042
			c0.152-0.36,0.257-0.513,0.392-0.513c0.195,0,0.257,0.12,0.392,0.406c0.315,0.706,2.525,5.94,3.368,7.879
			c0.512,1.158,0.887,1.323,1.127,1.368c0.195,0.029,0.346,0.046,0.497,0.046c0.119,0,0.18,0.044,0.18,0.135
			c0,0.105-0.074,0.135-0.571,0.135c-0.467,0-1.428,0-2.541-0.029c-0.239-0.015-0.391-0.015-0.391-0.105
			c0-0.075,0.03-0.12,0.165-0.135c0.091-0.017,0.181-0.136,0.121-0.286l-1.022-2.571c-0.03-0.076-0.076-0.09-0.136-0.09H170.537z
			 M173.363,145.874c0.061,0,0.076-0.028,0.061-0.074l-1.247-3.249c-0.017-0.045-0.031-0.119-0.062-0.119
			c-0.046,0-0.06,0.074-0.073,0.119l-1.279,3.233c-0.031,0.062,0,0.09,0.045,0.09H173.363z"/>
		<path d="M186.806,144.296c0.028,0,0.074-0.015,0.074-0.09v-0.272c0-1.938-0.015-2.405-0.029-2.811
			c-0.03-0.437-0.15-0.572-0.571-0.69c-0.105-0.032-0.331-0.046-0.511-0.046c-0.151,0-0.227-0.045-0.227-0.136
			c0-0.09,0.09-0.119,0.286-0.119c0.706,0,1.638,0.029,1.984,0.029c0.315,0,1.188-0.029,1.699-0.029
			c0.194,0,0.285,0.029,0.285,0.119c0,0.091-0.091,0.136-0.241,0.136c-0.104,0-0.226,0.014-0.39,0.046
			c-0.346,0.06-0.451,0.239-0.48,0.69c-0.03,0.405-0.03,0.767-0.03,2.707v2.256c0,1.171,0,2.179,0.06,2.735
			c0.045,0.361,0.12,0.601,0.525,0.661c0.18,0.029,0.466,0.046,0.678,0.046c0.136,0,0.21,0.075,0.21,0.135
			c0,0.091-0.105,0.135-0.271,0.135c-0.856,0-1.729-0.044-2.091-0.044c-0.301,0-1.232,0.044-1.744,0.044
			c-0.179,0-0.284-0.044-0.284-0.135c0-0.06,0.06-0.135,0.21-0.135c0.211,0,0.36-0.017,0.48-0.046
			c0.271-0.061,0.347-0.3,0.392-0.676c0.06-0.542,0.06-1.519,0.06-2.691v-0.979c0-0.045-0.046-0.075-0.074-0.075h-4.992
			c-0.045,0-0.09,0.018-0.09,0.075v0.979c0,1.173,0.015,2.149,0.076,2.706c0.045,0.361,0.118,0.601,0.51,0.661
			c0.18,0.029,0.481,0.046,0.676,0.046c0.15,0,0.212,0.075,0.212,0.135c0,0.091-0.104,0.135-0.271,0.135
			c-0.856,0-1.775-0.044-2.15-0.044c-0.302,0-1.173,0.044-1.7,0.044c-0.165,0-0.255-0.044-0.255-0.135
			c0-0.06,0.045-0.135,0.211-0.135c0.194,0,0.346-0.017,0.466-0.046c0.271-0.061,0.347-0.3,0.392-0.676
			c0.059-0.542,0.059-1.55,0.059-2.721v-2.256c0-1.94,0-2.302-0.015-2.707c-0.03-0.437-0.15-0.572-0.571-0.69
			c-0.104-0.032-0.33-0.046-0.525-0.046c-0.136,0-0.226-0.045-0.226-0.136c0-0.09,0.105-0.119,0.285-0.119
			c0.707,0,1.578,0.029,1.939,0.029c0.315,0,1.234-0.029,1.76-0.029c0.18,0,0.271,0.029,0.271,0.119
			c0,0.091-0.075,0.136-0.241,0.136c-0.104,0-0.226,0.014-0.375,0.046c-0.362,0.06-0.467,0.239-0.496,0.69
			c-0.03,0.405-0.03,0.873-0.03,2.811v0.272c0,0.075,0.045,0.09,0.09,0.09H186.806z"/>
		<path d="M192.775,143.83c0-1.94,0.014-2.302-0.017-2.707c-0.029-0.451-0.15-0.572-0.57-0.69c-0.106-0.032-0.332-0.046-0.512-0.046
			c-0.15,0-0.226-0.045-0.226-0.136c0-0.09,0.09-0.119,0.284-0.119c0.708,0,1.595,0.029,1.986,0.029
			c0.329,0,1.218-0.029,1.698-0.029c0.195,0,0.285,0.029,0.285,0.119c0,0.091-0.075,0.136-0.21,0.136
			c-0.15,0-0.226,0.014-0.391,0.046c-0.346,0.06-0.45,0.239-0.482,0.69c-0.03,0.405-0.03,0.767-0.03,2.707v1.79
			c0,1.862,0.362,2.584,1.009,3.097c0.586,0.466,1.218,0.51,1.668,0.51c0.572,0,1.249-0.164,1.774-0.677
			c0.737-0.691,0.767-1.804,0.767-3.111v-1.608c0-1.94-0.016-2.302-0.029-2.707c-0.031-0.437-0.135-0.572-0.557-0.69
			c-0.104-0.032-0.331-0.046-0.48-0.046c-0.15,0-0.226-0.045-0.226-0.136c0-0.09,0.09-0.119,0.271-0.119
			c0.677,0,1.563,0.029,1.579,0.029c0.15,0,1.036-0.029,1.549-0.029c0.181,0,0.271,0.029,0.271,0.119
			c0,0.091-0.076,0.136-0.226,0.136c-0.151,0-0.226,0.014-0.392,0.046c-0.361,0.06-0.451,0.239-0.481,0.69
			c-0.014,0.405-0.03,0.767-0.03,2.707v1.368c0,1.429-0.15,2.932-1.264,3.849c-0.931,0.782-1.938,0.919-2.796,0.919
			c-0.69,0-2.059-0.032-3.021-0.873c-0.677-0.587-1.201-1.533-1.201-3.383V143.83z"/>
	</g>
	<g>
		<rect x="96.081" y="131.59" fill="#A71E32" width="110.934" height="0.946"/>
	</g>
	<g>
		<path d="M210.753,111.877c0.984,0,1.764,0.791,1.764,1.806c0,1.028-0.779,1.819-1.771,1.819c-0.981,0-1.779-0.791-1.779-1.819
			c0-1.015,0.798-1.806,1.779-1.806H210.753z M210.745,112.102c-0.821,0-1.48,0.71-1.48,1.581c0,0.885,0.659,1.595,1.497,1.595
			c0.822,0.009,1.475-0.71,1.475-1.588s-0.652-1.588-1.483-1.588H210.745z M210.392,114.736h-0.26v-2.022
			c0.178-0.022,0.323-0.046,0.525-0.046c0.281,0,0.475,0.063,0.595,0.151c0.122,0.088,0.188,0.226,0.188,0.412
			c0,0.271-0.188,0.435-0.397,0.499v0.016c0.18,0.032,0.298,0.194,0.348,0.491c0.05,0.314,0.098,0.436,0.137,0.499h-0.274
			c-0.048-0.063-0.104-0.248-0.153-0.515c-0.057-0.273-0.184-0.38-0.465-0.38h-0.242V114.736z M210.392,113.649h0.248
			c0.275,0,0.524-0.104,0.524-0.378c0-0.192-0.128-0.394-0.539-0.394c-0.104,0-0.178,0.006-0.233,0.015V113.649z"/>
	</g>
</g>
</svg>
